<?xml version="1.0" encoding="UTF-8" standalone="no"?>
<svg
   xmlns:dc="http://purl.org/dc/elements/1.1/"
   xmlns:cc="http://creativecommons.org/ns#"
   xmlns:rdf="http://www.w3.org/1999/02/22-rdf-syntax-ns#"
   xmlns:svg="http://www.w3.org/2000/svg"
   xmlns="http://www.w3.org/2000/svg"
   xmlns:sodipodi="http://sodipodi.sourceforge.net/DTD/sodipodi-0.dtd"
   xmlns:inkscape="http://www.inkscape.org/namespaces/inkscape"
   version="1.1"
   width="13.418812495544348cm"
   height="9.303514030317166cm"
   viewBox="0 0 912 631"
   id="svg1423"
   sodipodi:docname="ivory.svg"
   inkscape:version="0.92.4 (5da689c313, 2019-01-14)">
  <metadata
     id="metadata249">
    <rdf:RDF>
      <cc:Work
         rdf:about="">
        <dc:format>image/svg+xml</dc:format>
        <dc:type
           rdf:resource="http://purl.org/dc/dcmitype/StillImage" />
        <dc:title></dc:title>
      </cc:Work>
    </rdf:RDF>
  </metadata>
  <defs
     id="defs1427">
    <clipPath
       id="clip1">
      <path
         d="M 0.0000 0.0000 L 0.0000 633.00 L 913.00 633.00 L 913.00 0.0000 z"
         id="path825" />
    </clipPath>
    <clipPath
       id="clip2">
      <path
         d="M 0.0000 0.0000 L 0.0000 633.00 L 913.00 633.00 L 913.00 0.0000 z"
         id="path834" />
    </clipPath>
    <clipPath
       id="clip3">
      <path
         d="M 0.0000 0.0000 L 0.0000 633.00 L 913.00 633.00 L 913.00 0.0000 z"
         id="path843" />
    </clipPath>
    <clipPath
       id="clip4">
      <path
         d="M 0.0000 0.0000 L 0.0000 633.00 L 913.00 633.00 L 913.00 0.0000 z"
         id="path852" />
    </clipPath>
    <clipPath
       id="clip5">
      <path
         d="M 0.0000 0.0000 L 0.0000 633.00 L 913.00 633.00 L 913.00 0.0000 z"
         id="path861" />
    </clipPath>
    <clipPath
       id="clip6">
      <path
         d="M 0.0000 0.0000 L 0.0000 633.00 L 913.00 633.00 L 913.00 0.0000 z"
         id="path870" />
    </clipPath>
    <clipPath
       id="clip7">
      <path
         d="M 0.0000 0.0000 L 0.0000 633.00 L 913.00 633.00 L 913.00 0.0000 z"
         id="path879" />
    </clipPath>
    <clipPath
       id="clip8">
      <path
         d="M 0.0000 0.0000 L 0.0000 633.00 L 913.00 633.00 L 913.00 0.0000 z"
         id="path888" />
    </clipPath>
    <clipPath
       id="clip9">
      <path
         d="M 0.0000 0.0000 L 0.0000 633.00 L 913.00 633.00 L 913.00 0.0000 z"
         id="path897" />
    </clipPath>
    <clipPath
       id="clip10">
      <path
         d="M 0.0000 0.0000 L 0.0000 633.00 L 913.00 633.00 L 913.00 0.0000 z"
         id="path906" />
    </clipPath>
    <clipPath
       id="clip11">
      <path
         d="M 0.0000 0.0000 L 0.0000 633.00 L 913.00 633.00 L 913.00 0.0000 z"
         id="path915" />
    </clipPath>
    <clipPath
       id="clip12">
      <path
         d="M 0.0000 0.0000 L 0.0000 633.00 L 913.00 633.00 L 913.00 0.0000 z"
         id="path924" />
    </clipPath>
    <clipPath
       id="clip13">
      <path
         d="M 0.0000 0.0000 L 0.0000 633.00 L 913.00 633.00 L 913.00 0.0000 z"
         id="path933" />
    </clipPath>
    <clipPath
       id="clip14">
      <path
         d="M 0.0000 0.0000 L 0.0000 633.00 L 913.00 633.00 L 913.00 0.0000 z"
         id="path942" />
    </clipPath>
    <clipPath
       id="clip15">
      <path
         d="M 0.0000 0.0000 L 0.0000 633.00 L 913.00 633.00 L 913.00 0.0000 z"
         id="path951" />
    </clipPath>
    <clipPath
       id="clip16">
      <path
         d="M 0.0000 0.0000 L 0.0000 633.00 L 913.00 633.00 L 913.00 0.0000 z"
         id="path960" />
    </clipPath>
    <clipPath
       id="clip17">
      <path
         d="M 0.0000 0.0000 L 0.0000 633.00 L 913.00 633.00 L 913.00 0.0000 z"
         id="path969" />
    </clipPath>
    <clipPath
       id="clip18">
      <path
         d="M 0.0000 0.0000 L 0.0000 633.00 L 913.00 633.00 L 913.00 0.0000 z"
         id="path978" />
    </clipPath>
    <clipPath
       id="clip19">
      <path
         d="M 0.0000 0.0000 L 0.0000 633.00 L 913.00 633.00 L 913.00 0.0000 z"
         id="path987" />
    </clipPath>
    <clipPath
       id="clip20">
      <path
         d="M 0.0000 0.0000 L 0.0000 633.00 L 913.00 633.00 L 913.00 0.0000 z"
         id="path996" />
    </clipPath>
    <clipPath
       id="clip21">
      <path
         d="M 0.0000 0.0000 L 0.0000 633.00 L 913.00 633.00 L 913.00 0.0000 z"
         id="path1005" />
    </clipPath>
    <clipPath
       id="clip22">
      <path
         d="M 0.0000 0.0000 L 0.0000 633.00 L 913.00 633.00 L 913.00 0.0000 z"
         id="path1014" />
    </clipPath>
    <clipPath
       id="clip23">
      <path
         d="M 0.0000 0.0000 L 0.0000 633.00 L 913.00 633.00 L 913.00 0.0000 z"
         id="path1023" />
    </clipPath>
    <clipPath
       id="clip24">
      <path
         d="M 0.0000 0.0000 L 0.0000 633.00 L 913.00 633.00 L 913.00 0.0000 z"
         id="path1032" />
    </clipPath>
    <clipPath
       id="clip25">
      <path
         d="M 0.0000 0.0000 L 0.0000 633.00 L 913.00 633.00 L 913.00 0.0000 z"
         id="path1041" />
    </clipPath>
    <clipPath
       id="clip26">
      <path
         d="M 0.0000 0.0000 L 0.0000 633.00 L 913.00 633.00 L 913.00 0.0000 z"
         id="path1050" />
    </clipPath>
    <clipPath
       id="clip27">
      <path
         d="M 0.0000 0.0000 L 0.0000 633.00 L 913.00 633.00 L 913.00 0.0000 z"
         id="path1059" />
    </clipPath>
    <clipPath
       id="clip28">
      <path
         d="M 0.0000 0.0000 L 0.0000 633.00 L 913.00 633.00 L 913.00 0.0000 z"
         id="path1068" />
    </clipPath>
    <clipPath
       id="clip29">
      <path
         d="M 0.0000 0.0000 L 0.0000 633.00 L 913.00 633.00 L 913.00 0.0000 z"
         id="path1077" />
    </clipPath>
    <clipPath
       id="clip30">
      <path
         d="M 0.0000 0.0000 L 0.0000 633.00 L 913.00 633.00 L 913.00 0.0000 z"
         id="path1086" />
    </clipPath>
    <clipPath
       id="clip31">
      <path
         d="M 0.0000 0.0000 L 0.0000 633.00 L 913.00 633.00 L 913.00 0.0000 z"
         id="path1095" />
    </clipPath>
    <clipPath
       id="clip32">
      <path
         d="M 0.0000 0.0000 L 0.0000 633.00 L 913.00 633.00 L 913.00 0.0000 z"
         id="path1104" />
    </clipPath>
    <clipPath
       id="clip33">
      <path
         d="M 0.0000 0.0000 L 0.0000 633.00 L 913.00 633.00 L 913.00 0.0000 z"
         id="path1113" />
    </clipPath>
    <clipPath
       id="clip34">
      <path
         d="M 0.0000 0.0000 L 0.0000 633.00 L 913.00 633.00 L 913.00 0.0000 z"
         id="path1122" />
    </clipPath>
    <clipPath
       id="clip35">
      <path
         d="M 0.0000 0.0000 L 0.0000 633.00 L 913.00 633.00 L 913.00 0.0000 z"
         id="path1131" />
    </clipPath>
    <clipPath
       id="clip36">
      <path
         d="M 0.0000 0.0000 L 0.0000 633.00 L 913.00 633.00 L 913.00 0.0000 z"
         id="path1140" />
    </clipPath>
    <clipPath
       id="clip37">
      <path
         d="M 0.0000 0.0000 L 0.0000 633.00 L 913.00 633.00 L 913.00 0.0000 z"
         id="path1149" />
    </clipPath>
    <clipPath
       id="clip38">
      <path
         d="M 0.0000 0.0000 L 0.0000 633.00 L 913.00 633.00 L 913.00 0.0000 z"
         id="path1158" />
    </clipPath>
    <clipPath
       id="clip39">
      <path
         d="M 0.0000 0.0000 L 0.0000 633.00 L 913.00 633.00 L 913.00 0.0000 z"
         id="path1167" />
    </clipPath>
    <clipPath
       id="clip40">
      <path
         d="M 0.0000 0.0000 L 0.0000 633.00 L 913.00 633.00 L 913.00 0.0000 z"
         id="path1176" />
    </clipPath>
    <clipPath
       id="clip41">
      <path
         d="M 0.0000 0.0000 L 0.0000 633.00 L 913.00 633.00 L 913.00 0.0000 z"
         id="path1185" />
    </clipPath>
    <clipPath
       id="clip42">
      <path
         d="M 0.0000 0.0000 L 0.0000 633.00 L 913.00 633.00 L 913.00 0.0000 z"
         id="path1194" />
    </clipPath>
    <clipPath
       id="clip43">
      <path
         d="M 0.0000 0.0000 L 0.0000 633.00 L 913.00 633.00 L 913.00 0.0000 z"
         id="path1203" />
    </clipPath>
    <clipPath
       id="clip44">
      <path
         d="M 0.0000 0.0000 L 0.0000 633.00 L 913.00 633.00 L 913.00 0.0000 z"
         id="path1212" />
    </clipPath>
    <clipPath
       id="clip45">
      <path
         d="M 0.0000 0.0000 L 0.0000 633.00 L 913.00 633.00 L 913.00 0.0000 z"
         id="path1221" />
    </clipPath>
    <clipPath
       id="clip46">
      <path
         d="M 0.0000 0.0000 L 0.0000 633.00 L 913.00 633.00 L 913.00 0.0000 z"
         id="path1230" />
    </clipPath>
    <clipPath
       id="clip47">
      <path
         d="M 0.0000 0.0000 L 0.0000 633.00 L 913.00 633.00 L 913.00 0.0000 z"
         id="path1239" />
    </clipPath>
    <clipPath
       id="clip48">
      <path
         d="M 0.0000 0.0000 L 0.0000 633.00 L 913.00 633.00 L 913.00 0.0000 z"
         id="path1248" />
    </clipPath>
  </defs>
  <sodipodi:namedview
     pagecolor="#ffffff"
     bordercolor="#666666"
     borderopacity="1"
     objecttolerance="10"
     gridtolerance="10"
     guidetolerance="10"
     inkscape:pageopacity="0"
     inkscape:pageshadow="2"
     inkscape:window-width="1738"
     inkscape:window-height="955"
     id="namedview1425"
     showgrid="false"
     inkscape:zoom="2.7288803"
     inkscape:cx="180.11051"
     inkscape:cy="157.39056"
     inkscape:window-x="0"
     inkscape:window-y="25"
     inkscape:window-maximized="0"
     inkscape:current-layer="svg1423">
    <inkscape:grid
       type="xygrid"
       id="grid1082" />
  </sodipodi:namedview>
  <path
     style="fill:#e6e6e6;stroke:#000000;stroke-width:1.79822171px;stroke-linecap:butt;stroke-linejoin:miter;stroke-opacity:1"
     d="m 233.27168,163.13311 67.51551,63.26011 c -11.55628,3.93704 -20.65528,25.07503 -30.61378,40.19655 L 186.84286,225.0753 c 12.59628,-22.74887 27.166,-47.52649 46.42882,-61.94219 z"
     id="path1080"
     inkscape:connector-curvature="0"
     sodipodi:nodetypes="ccccc" />
  <path
     style="fill:#ececec;stroke:#000000;stroke-width:1.79822171px;stroke-linecap:butt;stroke-linejoin:miter;stroke-opacity:1"
     d="m 377.94114,179.90155 c 12.7297,30.31106 15.77783,49.00422 20.07042,69.19075 82.79433,-7.99226 102.49327,-3.83735 131.79192,2.63585 3.83994,-20.75324 7.83422,-34.41226 20.42774,-71.16764 -32.53463,-10.17628 -98.29,-26.10417 -172.29008,-0.65896 z"
     id="path1078"
     inkscape:connector-curvature="0"
     sodipodi:nodetypes="ccccc" />
  <g
     clip-path="url(#clip2)"
     id="g841"
     style="stroke-width:1;stroke-linecap:square;stroke-linejoin:miter;stroke-miterlimit:10;stroke-dasharray:none;stroke-dashoffset:0">
    <g
       stroke-linecap="butt"
       fill="none"
       stroke-opacity="1"
       stroke="#000000"
       id="g839" />
    <!-- drawing style -->
  </g>
  <g
     clip-path="url(#clip4)"
     id="g859"
     style="stroke-width:1;stroke-linecap:square;stroke-linejoin:miter;stroke-miterlimit:10;stroke-dasharray:none;stroke-dashoffset:0">
    <g
       stroke-linecap="butt"
       fill="none"
       stroke-opacity="1"
       stroke="#000000"
       id="g857">
      <path
         d="M 0,326.07 H 911"
         id="path855" />
    </g>
    <!-- drawing style -->
  </g>
  <g
     clip-path="url(#clip5)"
     id="g868"
     style="stroke-width:1;stroke-linecap:square;stroke-linejoin:miter;stroke-miterlimit:10;stroke-dasharray:none;stroke-dashoffset:0">
    <g
       stroke-linecap="butt"
       fill="none"
       stroke-opacity="1"
       stroke="#000000"
       id="g866">
      <path
         d="m 912,326.07 -3,-3"
         id="path864" />
    </g>
    <!-- drawing style -->
  </g>
  <g
     clip-path="url(#clip6)"
     id="g877"
     style="stroke-width:1;stroke-linecap:square;stroke-linejoin:miter;stroke-miterlimit:10;stroke-dasharray:none;stroke-dashoffset:0">
    <g
       stroke-linecap="butt"
       fill="none"
       stroke-opacity="1"
       stroke="#000000"
       id="g875">
      <path
         d="m 912,326.07 -3,3"
         id="path873" />
    </g>
    <!-- drawing style -->
  </g>
  <g
     clip-path="url(#clip8)"
     id="g895"
     style="stroke-width:1;stroke-linecap:square;stroke-linejoin:miter;stroke-miterlimit:10;stroke-dasharray:none;stroke-dashoffset:0">
    <g
       stroke-linecap="butt"
       fill="none"
       stroke-opacity="1"
       stroke="#000000"
       id="g893">
      <path
         d="m 55.542,326.07 v 3"
         id="path891" />
    </g>
    <!-- drawing style -->
  </g>
  <g
     clip-path="url(#clip13)"
     id="g940"
     style="stroke-width:1;stroke-linecap:square;stroke-linejoin:miter;stroke-miterlimit:10;stroke-dasharray:none;stroke-dashoffset:0">
    <g
       fill-opacity="1"
       fill-rule="nonzero"
       stroke="none"
       fill="#000000"
       id="g938" />
    <!-- drawing style -->
  </g>
  <g
     clip-path="url(#clip14)"
     id="g949"
     style="stroke-width:1;stroke-linecap:square;stroke-linejoin:miter;stroke-miterlimit:10;stroke-dasharray:none;stroke-dashoffset:0">
    <g
       stroke-linecap="butt"
       fill="none"
       stroke-opacity="1"
       stroke="#000000"
       id="g947">
      <path
         d="m 259.66,326.07 v 3"
         id="path945" />
    </g>
    <!-- drawing style -->
  </g>
  <g
     clip-path="url(#clip15)"
     id="g958"
     style="stroke-width:1;stroke-linecap:square;stroke-linejoin:miter;stroke-miterlimit:10;stroke-dasharray:none;stroke-dashoffset:0">
    <g
       fill-opacity="1"
       fill-rule="nonzero"
       stroke="none"
       fill="#000000"
       id="g956" />
    <!-- drawing style -->
  </g>
  <g
     clip-path="url(#clip16)"
     id="g967"
     style="stroke-width:1;stroke-linecap:square;stroke-linejoin:miter;stroke-miterlimit:10;stroke-dasharray:none;stroke-dashoffset:0">
    <g
       stroke-linecap="butt"
       fill="none"
       stroke-opacity="1"
       stroke="#000000"
       id="g965">
      <path
         d="m 327.7,326.07 v 3"
         id="path963" />
    </g>
    <!-- drawing style -->
  </g>
  <g
     clip-path="url(#clip18)"
     id="g985"
     style="stroke-width:1;stroke-linecap:square;stroke-linejoin:miter;stroke-miterlimit:10;stroke-dasharray:none;stroke-dashoffset:0">
    <g
       stroke-linecap="butt"
       fill="none"
       stroke-opacity="1"
       stroke="#000000"
       id="g983">
      <path
         d="m 395.74,326.07 v 3"
         id="path981" />
    </g>
    <!-- drawing style -->
  </g>
  <g
     clip-path="url(#clip21)"
     id="g1012"
     style="stroke-width:1;stroke-linecap:square;stroke-linejoin:miter;stroke-miterlimit:10;stroke-dasharray:none;stroke-dashoffset:0">
    <g
       stroke-linecap="butt"
       fill="none"
       stroke-opacity="1"
       stroke="#000000"
       id="g1010">
      <path
         d="m 531.81,326.07 v 3"
         id="path1008" />
    </g>
    <!-- drawing style -->
  </g>
  <g
     clip-path="url(#clip22)"
     id="g1021"
     style="stroke-width:1;stroke-linecap:square;stroke-linejoin:miter;stroke-miterlimit:10;stroke-dasharray:none;stroke-dashoffset:0">
    <g
       fill-opacity="1"
       fill-rule="nonzero"
       stroke="none"
       fill="#000000"
       id="g1019" />
    <!-- drawing style -->
  </g>
  <g
     clip-path="url(#clip23)"
     id="g1030"
     style="stroke-width:1;stroke-linecap:square;stroke-linejoin:miter;stroke-miterlimit:10;stroke-dasharray:none;stroke-dashoffset:0">
    <g
       stroke-linecap="butt"
       fill="none"
       stroke-opacity="1"
       stroke="#000000"
       id="g1028">
      <path
         d="m 599.85,326.07 v 3"
         id="path1026" />
    </g>
    <!-- drawing style -->
  </g>
  <g
     clip-path="url(#clip25)"
     id="g1048"
     style="stroke-width:1;stroke-linecap:square;stroke-linejoin:miter;stroke-miterlimit:10;stroke-dasharray:none;stroke-dashoffset:0">
    <g
       stroke-linecap="butt"
       fill="none"
       stroke-opacity="1"
       stroke="#000000"
       id="g1046">
      <path
         d="m 667.89,326.07 v 3"
         id="path1044" />
    </g>
    <!-- drawing style -->
  </g>
  <g
     clip-path="url(#clip47)"
     id="g1246"
     style="stroke-width:1;stroke-linecap:square;stroke-linejoin:miter;stroke-miterlimit:10;stroke-dasharray:none;stroke-dashoffset:0">
    <g
       fill-opacity="1"
       fill-rule="nonzero"
       stroke="none"
       fill="#000000"
       id="g1244" />
    <!-- drawing style -->
  </g>
  <g
     clip-path="url(#clip48)"
     id="g1255"
     style="stroke-width:1;stroke-linecap:square;stroke-linejoin:miter;stroke-miterlimit:10;stroke-dasharray:none;stroke-dashoffset:0">
    <g
       stroke-linecap="butt"
       fill="none"
       stroke-opacity="1"
       stroke="#000000"
       id="g1253" />
    <!-- drawing style -->
  </g>
  <g
     id="misc"
     style="stroke-width:1;stroke-linecap:square;stroke-linejoin:miter;stroke-miterlimit:10;stroke-dasharray:none;stroke-dashoffset:0" />
  <g
     id="layer0"
     style="stroke-width:1;stroke-linecap:square;stroke-linejoin:miter;stroke-miterlimit:10;stroke-dasharray:none;stroke-dashoffset:0">
    <clipPath
       id="clip49">
      <path
         d="M 0,0 V 633 H 913 V 0 Z"
         id="path1258" />
    </clipPath>
    <g
       clip-path="url(#clip49)"
       id="g1265">
      <g
         stroke-linejoin="round"
         stroke-width="2.5"
         stroke-linecap="round"
         fill="none"
         stroke-opacity="1"
         stroke="#ff0000"
         id="g1263">
        <path
           d="M 760.73,326.07 C 760.73,180.3 627.78,62.13 463.78,62.13 c -164.01,0 -296.96,118.17 -296.96,263.94 0,145.78 132.95,263.95 296.96,263.95 164,0 296.95,-118.17 296.95,-263.95 z"
           id="path1261"
           style="stroke-width:3.1807285;stroke-miterlimit:10;stroke-dasharray:none" />
      </g>
      <!-- drawing style -->
    </g>
    <!-- clip49 -->
    <clipPath
       id="clip50">
      <path
         d="M 0,0 V 633 H 913 V 0 Z"
         id="path1267" />
    </clipPath>
    <g
       clip-path="url(#clip50)"
       id="g1274">
      <g
         stroke-linejoin="round"
         stroke-width="2.5"
         stroke-linecap="round"
         fill="none"
         stroke-opacity="1"
         stroke="#ff0000"
         id="g1272">
        <path
           d="m 673.73,326.07 c 0,-88.3 -94,-159.89 -209.95,-159.89 -115.96,0 -209.96,71.59 -209.96,159.89 0,88.31 94,159.89 209.96,159.89 115.95,0 209.95,-71.58 209.95,-159.89 z"
           id="path1270"
           style="stroke-width:3.1807285;stroke-miterlimit:10;stroke-dasharray:none" />
      </g>
      <!-- drawing style -->
    </g>
    <!-- clip50 -->
    <clipPath
       id="clip51">
      <path
         d="M 0,0 V 633 H 913 V 0 Z"
         id="path1276" />
    </clipPath>
    <g
       clip-path="url(#clip51)"
       id="g1283">
      <g
         stroke-linejoin="round"
         stroke-width="2.5"
         stroke-linecap="round"
         fill="none"
         stroke-opacity="1"
         stroke="#ff0000"
         id="g1281">
        <path
           d="m 622.7,326.07 c 0,-45.34 -71.15,-82.09 -158.92,-82.09 -87.78,0 -158.93,36.75 -158.93,82.09 0,45.34 71.15,82.1 158.93,82.1 87.77,0 158.92,-36.76 158.92,-82.1 z"
           id="path1279"
           style="stroke-width:3.1807285;stroke-miterlimit:10;stroke-dasharray:none" />
      </g>
      <!-- drawing style -->
    </g>
    <!-- clip51 -->
    <clipPath
       id="clip52">
      <path
         d="M 0,0 V 633 H 913 V 0 Z"
         id="path1285" />
    </clipPath>
    <g
       clip-path="url(#clip52)"
       id="g1292">
      <g
         stroke-linejoin="round"
         stroke-width="2"
         stroke-linecap="round"
         fill="none"
         stroke-opacity="1"
         stroke="#0000ff"
         id="g1290">
        <path
           d="m -231.89,876.24 120.06,-97.45 86.242,-70.45 64.857,-53.37 50.465,-41.9 40.316,-33.83 32.88,-27.93 27.27,-23.49 22.93,-20.08 19.5,-17.4 16.75,-15.24 14.48,-13.51 12.62,-12.08 11.04,-10.9 9.71,-9.9 8.56,-9.07 7.57,-8.36 6.7,-7.76 5.93,-7.24 5.24,-6.79 4.63,-6.41 4.07,-6.08 3.57,-5.81 3.09,-5.56 2.67,-5.36 2.25,-5.18 1.88,-5.04 1.51,-4.93 1.16,-4.84 0.82,-4.77 0.49,-4.73 0.16,-4.71 -0.16,-4.7 -0.49,-4.73 -0.82,-4.77 -1.16,-4.84 -1.51,-4.93 -1.88,-5.04 -2.25,-5.19 -2.67,-5.36 -3.09,-5.56 -3.57,-5.8 -4.07,-6.08 -4.63,-6.41 -5.24,-6.8 -5.93,-7.24 -6.7,-7.75 -7.57,-8.36 -8.56,-9.07 -9.71,-9.9 -11.04,-10.9 L 263.86,190.56 249.38,177.05 232.63,161.8 213.13,144.41 190.2,124.33 162.93,100.83 130.05,72.904 89.734,39.079 39.269,-2.8226 -25.588,-56.195 -111.83,-126.64 -231.89,-224.09"
           id="path1288" />
      </g>
      <!-- drawing style -->
    </g>
    <!-- clip52 -->
    <clipPath
       id="clip53">
      <path
         d="M 0,0 V 633 H 913 V 0 Z"
         id="path1294" />
    </clipPath>
    <g
       clip-path="url(#clip53)"
       id="g1301">
      <g
         stroke-linejoin="round"
         stroke-width="2"
         stroke-linecap="round"
         fill="none"
         stroke-opacity="1"
         stroke="#0000ff"
         id="g1299">
        <path
           d="m 1159.4,876.24 -120,-97.45 -86.26,-70.45 -64.86,-53.37 -50.46,-41.9 -40.32,-33.83 -32.87,-27.93 -27.28,-23.49 -22.93,-20.08 -19.5,-17.4 -16.75,-15.24 -14.48,-13.51 -12.62,-12.08 -11.04,-10.9 -9.71,-9.9 -8.56,-9.07 -7.57,-8.36 -6.7,-7.76 -5.92,-7.24 -5.25,-6.79 -4.63,-6.41 -4.07,-6.08 -3.56,-5.81 -3.1,-5.56 -2.66,-5.36 -2.26,-5.18 -1.88,-5.04 -1.51,-4.93 -1.16,-4.84 -0.82,-4.77 -0.49,-4.73 -0.16,-4.71 0.16,-4.7 0.49,-4.73 0.82,-4.77 1.16,-4.84 1.51,-4.93 1.88,-5.04 2.26,-5.19 2.66,-5.36 3.1,-5.56 3.56,-5.8 4.07,-6.08 4.63,-6.41 5.25,-6.8 5.92,-7.24 6.7,-7.75 7.57,-8.36 8.56,-9.07 9.71,-9.9 11.04,-10.9 12.62,-12.08 14.48,-13.51 16.75,-15.25 19.5,-17.39 22.93,-20.08 27.28,-23.5 32.87,-27.926 40.32,-33.825 50.46,-41.9016 64.86,-53.3724 86.26,-70.445 120,-97.45"
           id="path1297"
           style="stroke-width:3.35743563;stroke-miterlimit:10;stroke-dasharray:none" />
      </g>
      <!-- drawing style -->
    </g>
    <!-- clip53 -->
    <clipPath
       id="clip54">
      <path
         d="M 0,0 V 633 H 913 V 0 Z"
         id="path1303" />
    </clipPath>
    <g
       clip-path="url(#clip54)"
       id="g1310">
      <g
         stroke-linejoin="round"
         stroke-width="2.5"
         stroke-linecap="round"
         fill="none"
         stroke-opacity="1"
         stroke="#0000ff"
         id="g1308">
        <path
           d="m -231.89,1872.8 200.859,-450 113.093,-254.4 72.438,-163.7 50.28,-114.43 36.88,-84.57 28.16,-65.19 22.15,-51.89 17.84,-42.36 14.65,-35.31 12.2,-29.97 10.29,-25.81 8.77,-22.51 7.53,-19.88 6.52,-17.73 5.66,-15.96 4.94,-14.48 4.33,-13.26 3.79,-12.22 3.33,-11.35 2.91,-10.61 2.55,-9.97 2.22,-9.44 1.91,-8.98 1.64,-8.6 1.39,-8.28 1.14,-8.02 0.93,-7.81 0.7,-7.64 0.5,-7.52 0.3,-7.44 0.1,-7.4 -0.1,-7.4 -0.3,-7.44 -0.5,-7.52 -0.7,-7.64 -0.93,-7.8 -1.14,-8.02 -1.39,-8.28 -1.64,-8.6 -1.91,-8.99 -2.22,-9.43 -2.55,-9.98 -2.91,-10.6 -3.33,-11.35 -3.79,-12.22 -4.33,-13.26 -4.94,-14.49 -5.66,-15.95 -6.52,-17.73 -7.53,-19.88 L 346.95,96.972 336.66,71.164 324.46,41.2 309.81,5.8837 291.97,-36.476 269.82,-88.359 241.66,-153.55 204.78,-238.13 154.5,-352.52 82.062,-516.25 -31.031,-770.61 -231.89,-1220.7"
           id="path1306"
           style="stroke-width:3.1807285;stroke-miterlimit:10;stroke-dasharray:none" />
      </g>
      <!-- drawing style -->
    </g>
    <!-- clip54 -->
    <clipPath
       id="clip55">
      <path
         d="M 0,0 V 633 H 913 V 0 Z"
         id="path1312" />
    </clipPath>
    <g
       clip-path="url(#clip55)"
       id="g1319">
      <g
         stroke-linejoin="round"
         stroke-width="2.5"
         stroke-linecap="round"
         fill="none"
         stroke-opacity="1"
         stroke="#0000ff"
         id="g1317">
        <path
           d="m 1159.4,1872.8 -200.82,-450 -113.09,-254.4 -72.44,-163.7 -50.28,-114.43 -36.88,-84.57 -28.16,-65.19 -22.15,-51.89 -17.84,-42.36 -14.65,-35.31 -12.2,-29.97 -10.29,-25.81 -8.77,-22.51 -7.53,-19.88 -6.51,-17.73 -5.67,-15.96 -4.94,-14.48 -4.33,-13.26 -3.79,-12.22 -3.33,-11.35 -2.91,-10.61 -2.55,-9.97 -2.21,-9.44 -1.92,-8.98 -1.64,-8.6 -1.39,-8.28 -1.14,-8.02 -0.93,-7.81 -0.7,-7.64 -0.5,-7.52 -0.3,-7.44 -0.1,-7.4 0.1,-7.4 0.3,-7.44 0.5,-7.52 0.7,-7.64 0.93,-7.8 1.14,-8.02 1.39,-8.28 1.64,-8.6 1.92,-8.99 2.21,-9.43 2.55,-9.98 2.91,-10.6 3.33,-11.35 3.79,-12.22 4.33,-13.26 4.94,-14.49 5.67,-15.95 6.51,-17.73 7.53,-19.88 8.77,-22.518 10.29,-25.808 12.2,-29.964 14.65,-35.3163 17.84,-42.3597 22.15,-51.883 28.16,-65.191 36.88,-84.58 50.28,-114.39 72.44,-163.73 113.09,-254.36 200.82,-450.09"
           id="path1315"
           style="stroke-width:3.1807285;stroke-miterlimit:10;stroke-dasharray:none" />
      </g>
      <!-- drawing style -->
    </g>
    <!-- clip55 -->
    <clipPath
       id="clip56">
      <path
         d="M 0,0 V 633 H 913 V 0 Z"
         id="path1321" />
    </clipPath>
    <g
       clip-path="url(#clip56)"
       id="g1328">
      <g
         stroke-linejoin="round"
         stroke-width="2.5"
         stroke-linecap="round"
         fill="none"
         stroke-opacity="1"
         stroke="#0000ff"
         id="g1326">
        <path
           d="m -231.89,602.21 102.97,-42.38 77.698,-32.22 60.6215,-25.35 48.5365,-20.49 39.665,-16.95 32.959,-14.26 27.76,-12.2 23.65,-10.58 20.33,-9.27 17.63,-8.21 15.37,-7.35 13.48,-6.62 11.88,-6.01 10.5,-5.5 9.3,-5.07 8.26,-4.7 7.33,-4.38 6.52,-4.1 5.78,-3.87 5.12,-3.66 4.51,-3.49 3.96,-3.33 3.44,-3.2 2.97,-3.1 2.51,-3 2.1,-2.92 1.68,-2.86 1.3,-2.81 0.92,-2.77 0.55,-2.75 0.18,-2.74 -0.18,-2.73 -0.55,-2.75 -0.92,-2.78 -1.3,-2.81 -1.68,-2.85 -2.1,-2.93 -2.51,-3 -2.97,-3.09 -3.44,-3.2 -3.96,-3.34 -4.51,-3.48 -5.12,-3.66 -5.78,-3.87 -6.52,-4.1 -7.33,-4.38 -8.26,-4.7 -9.3,-5.07 -10.5,-5.5 -11.88,-6.02 -13.48,-6.62 -15.37,-7.34 -17.63,-8.21 -20.33,-9.28 -23.65,-10.57 -27.76,-12.2 L 97.601,187.32 57.936,170.38 9.3995,149.88 -51.222,124.54 -128.92,92.321 -231.89,49.932"
           id="path1324" />
      </g>
      <!-- drawing style -->
    </g>
    <!-- clip56 -->
    <clipPath
       id="clip57">
      <path
         d="M 0,0 V 633 H 913 V 0 Z"
         id="path1330" />
    </clipPath>
    <g
       clip-path="url(#clip57)"
       id="g1337">
      <g
         stroke-linejoin="round"
         stroke-width="2.5"
         stroke-linecap="round"
         fill="none"
         stroke-opacity="1"
         stroke="#0000ff"
         id="g1335">
        <path
           d="m 1159.4,602.21 -102.9,-42.38 -77.73,-32.22 -60.62,-25.35 -48.53,-20.49 -39.67,-16.95 -32.96,-14.26 -27.76,-12.2 -23.65,-10.58 -20.33,-9.27 -17.63,-8.21 -15.37,-7.35 -13.48,-6.62 -11.88,-6.01 -10.5,-5.5 -9.3,-5.07 -8.26,-4.7 -7.33,-4.38 -6.52,-4.1 -5.78,-3.87 -5.12,-3.66 -4.51,-3.49 -3.96,-3.33 -3.44,-3.2 -2.97,-3.1 -2.51,-3 -2.1,-2.92 -1.68,-2.86 -1.3,-2.81 -0.92,-2.77 -0.55,-2.75 -0.18,-2.74 0.18,-2.73 0.55,-2.75 0.92,-2.78 1.3,-2.81 1.68,-2.85 2.1,-2.93 2.51,-3 2.97,-3.09 3.44,-3.2 3.96,-3.34 4.51,-3.48 5.12,-3.66 5.78,-3.87 6.52,-4.1 7.33,-4.38 8.26,-4.7 9.3,-5.07 10.5,-5.5 11.88,-6.02 13.48,-6.62 15.37,-7.34 17.63,-8.21 20.33,-9.28 23.65,-10.57 27.76,-12.2 32.96,-14.27 39.67,-16.94 48.53,-20.5 60.62,-25.34 77.73,-32.219 102.9,-42.389"
           id="path1333"
           style="stroke-width:3.1807285;stroke-miterlimit:10;stroke-dasharray:none" />
      </g>
      <!-- drawing style -->
    </g>
    <!-- clip57 -->
    <clipPath
       id="clip58">
      <path
         d="M 0,0 V 633 H 913 V 0 Z"
         id="path1339" />
    </clipPath>
    <g
       clip-path="url(#clip58)"
       id="g1346">
      <g
         stroke-linejoin="round"
         stroke-width="2"
         stroke-linecap="round"
         fill="none"
         stroke-opacity="1"
         stroke="#ff0000"
         id="g1344">
        <path
           d="M 327.7,326.07 H 599.85"
           id="path1342"
           style="stroke-width:3.35743563;stroke-miterlimit:10;stroke-dasharray:none" />
      </g>
      <!-- drawing style -->
    </g>
    <!-- clip58 -->
    <clipPath
       id="clip59">
      <path
         d="M 0,0 V 633 H 913 V 0 Z"
         id="path1348" />
    </clipPath>
    <g
       clip-path="url(#clip59)"
       id="g1355">
      <g
         stroke-linejoin="round"
         stroke-width="2.5"
         stroke-linecap="round"
         fill="none"
         stroke-opacity="1"
         stroke="#0000ff"
         id="g1353">
        <path
           d="M 328.2,326.57 H -4.5"
           id="path1351"
           style="stroke-width:3.1807285;stroke-miterlimit:10;stroke-dasharray:none" />
      </g>
      <!-- drawing style -->
    </g>
    <!-- clip59 -->
    <clipPath
       id="clip60">
      <path
         d="M 0,0 V 633 H 913 V 0 Z"
         id="path1357" />
    </clipPath>
    <g
       clip-path="url(#clip60)"
       id="g1364">
      <g
         stroke-linejoin="round"
         stroke-width="2.5"
         stroke-linecap="round"
         fill="none"
         stroke-opacity="1"
         stroke="#0000ff"
         id="g1362">
        <path
           d="M 600.35,326.57 H 918.5"
           id="path1360"
           style="stroke-width:3.1807285;stroke-miterlimit:10;stroke-dasharray:none" />
      </g>
      <!-- drawing style -->
    </g>
    <!-- clip60 -->
    <clipPath
       id="clip61">
      <path
         d="M 0,0 V 633 H 913 V 0 Z"
         id="path1366" />
    </clipPath>
    <g
       clip-path="url(#clip61)"
       id="g1373">
      <g
         fill-opacity="1"
         fill-rule="nonzero"
         stroke="none"
         fill="#7d7dff"
         id="g1371">
        <path
           d="m 330.7,326.07 c 0,1.66 -1.35,3 -3,3 -1.66,0 -3,-1.34 -3,-3 0,-1.65 1.34,-3 3,-3 1.65,0 3,1.35 3,3 z"
           id="path1369" />
      </g>
      <!-- drawing style -->
    </g>
    <!-- clip61 -->
    <clipPath
       id="clip62">
      <path
         d="M 0,0 V 633 H 913 V 0 Z"
         id="path1375" />
    </clipPath>
    <g
       clip-path="url(#clip62)"
       id="g1382">
      <g
         stroke-linejoin="round"
         stroke-linecap="round"
         fill="none"
         stroke-opacity="1"
         stroke="#000000"
         id="g1380">
        <path
           d="m 330.7,326.07 c 0,1.66 -1.35,3 -3,3 -1.66,0 -3,-1.34 -3,-3 0,-1.65 1.34,-3 3,-3 1.65,0 3,1.35 3,3 z"
           id="path1378"
           style="fill:#0b0012;fill-opacity:1" />
      </g>
      <!-- drawing style -->
    </g>
    <!-- clip62 -->
    <clipPath
       id="clip63">
      <path
         d="M 0,0 V 633 H 913 V 0 Z"
         id="path1384" />
    </clipPath>
    <g
       clip-path="url(#clip63)"
       id="g1391">
      <g
         fill-opacity="1"
         fill-rule="nonzero"
         stroke="none"
         fill="#7d7dff"
         id="g1389" />
      <!-- drawing style -->
    </g>
    <!-- clip63 -->
    <clipPath
       id="clip64">
      <path
         d="M 0,0 V 633 H 913 V 0 Z"
         id="path1393" />
    </clipPath>
    <g
       clip-path="url(#clip64)"
       id="g1400">
      <g
         fill-opacity="1"
         fill-rule="nonzero"
         stroke="none"
         fill="#7d7dff"
         id="g1398">
        <path
           d="m 602.85,326.07 c 0,1.66 -1.34,3 -3,3 -1.65,0 -3,-1.34 -3,-3 0,-1.65 1.35,-3 3,-3 1.66,0 3,1.35 3,3 z"
           id="path1396" />
      </g>
      <!-- drawing style -->
    </g>
    <!-- clip64 -->
    <clipPath
       id="clip65">
      <path
         d="M 0,0 V 633 H 913 V 0 Z"
         id="path1402" />
    </clipPath>
    <g
       clip-path="url(#clip65)"
       id="g1409">
      <g
         stroke-linejoin="round"
         stroke-linecap="round"
         fill="none"
         stroke-opacity="1"
         stroke="#000000"
         id="g1407">
        <path
           d="m 602.85,326.07 c 0,1.66 -1.34,3 -3,3 -1.65,0 -3,-1.34 -3,-3 0,-1.65 1.35,-3 3,-3 1.66,0 3,1.35 3,3 z"
           id="path1405"
           style="fill:#000000;fill-opacity:1" />
      </g>
      <!-- drawing style -->
    </g>
    <!-- clip65 -->
    <clipPath
       id="clip66">
      <path
         d="M 0,0 V 633 H 913 V 0 Z"
         id="path1411" />
    </clipPath>
    <g
       clip-path="url(#clip66)"
       id="g1418">
      <g
         fill-opacity="1"
         fill-rule="nonzero"
         stroke="none"
         fill="#7d7dff"
         id="g1416" />
      <!-- drawing style -->
    </g>
    <!-- clip66 -->
  </g>
  <!-- default stroke -->
  <ellipse
     style="fill:#000000;fill-opacity:1;stroke:#120011;stroke-width:4.84585;stroke-opacity:1"
     id="path1761"
     cx="377.9133"
     cy="179.57208"
     rx="1.6473988"
     ry="2.3063586" />
  <ellipse
     style="fill:#000000;fill-opacity:1;stroke:#120011;stroke-width:4.84585;stroke-opacity:1"
     id="ellipse1763"
     cx="399.65897"
     cy="250.08075"
     rx="1.6473988"
     ry="2.3063586" />
  <ellipse
     style="fill:#000000;fill-opacity:1;stroke:#120011;stroke-width:4.84585;stroke-opacity:1"
     id="ellipse1765"
     cx="377.9133"
     cy="179.57208"
     rx="1.6473988"
     ry="2.3063586" />
  <ellipse
     style="fill:#000000;fill-opacity:1;stroke:#120011;stroke-width:4.84585;stroke-opacity:1"
     id="ellipse1769"
     cx="549.57227"
     cy="180.23103"
     rx="2.6358383"
     ry="2.3063586" />
  <ellipse
     style="fill:#000000;fill-opacity:1;stroke:#120011;stroke-width:4.84585;stroke-opacity:1"
     id="path1767"
     cx="529.14453"
     cy="250.73972"
     rx="2.6358383"
     ry="2.3063586" />
  <text
     xml:space="preserve"
     style="font-style:normal;font-weight:normal;font-size:25.24200058px;line-height:1.25;font-family:sans-serif;fill:#000000;fill-opacity:1;stroke:none;stroke-width:0.63104898"
     x="323.09952"
     y="181.5208"
     id="text1773"
     transform="scale(1.0127101,0.98744941)"><tspan
       sodipodi:role="line"
       id="tspan1771"
       style="stroke-width:0.63104898"
       x="323.09952"
       y="181.5208">$A$</tspan></text>
  <text
     xml:space="preserve"
     style="font-style:normal;font-weight:normal;font-size:25.06609917px;line-height:1.25;font-family:sans-serif;fill:#000000;fill-opacity:1;stroke:none;stroke-width:0.626652"
     x="591.18768"
     y="166.21254"
     id="text1777"
     transform="scale(0.93764641,1.0665001)"><tspan
       sodipodi:role="line"
       id="tspan1775"
       style="stroke-width:0.626652"
       x="591.18768"
       y="166.21254">$B$</tspan></text>
  <text
     xml:space="preserve"
     style="font-style:normal;font-weight:normal;font-size:32.27209854px;line-height:1.25;font-family:sans-serif;fill:#000000;fill-opacity:1;stroke:none;stroke-width:0.80680102"
     x="505.5683"
     y="289.0065"
     id="text1781"
     transform="scale(1.0131918,0.98697995)"><tspan
       sodipodi:role="line"
       id="tspan1779"
       style="stroke-width:0.80680102"
       x="505.5683"
       y="289.0065">$C$</tspan></text>
  <text
     xml:space="preserve"
     style="font-style:normal;font-weight:normal;font-size:24.91620064px;line-height:1.25;font-family:sans-serif;fill:#000000;fill-opacity:1;stroke:none;stroke-width:0.62290502"
     x="402.27127"
     y="255.46309"
     id="text1785"
     transform="scale(0.90155531,1.1091943)"><tspan
       sodipodi:role="line"
       id="tspan1783"
       style="stroke-width:0.62290502"
       x="402.27127"
       y="255.46309">$D$</tspan></text>
  <path
     style="fill:none;stroke:#000000;stroke-width:3.83998205;stroke-linecap:butt;stroke-linejoin:miter;stroke-opacity:1;stroke-miterlimit:4;stroke-dasharray:none"
     d="m 381.53758,179.90155 148.2659,71.8266"
     id="path1787" />
  <path
     style="fill:none;stroke:#000000;stroke-width:3.83998205;stroke-linecap:butt;stroke-linejoin:miter;stroke-opacity:1;stroke-miterlimit:4;stroke-dasharray:none"
     d="m 398.01156,249.0923 c 3.95377,-0.65896 152.21966,-68.53179 152.21966,-68.53179"
     id="path1789" />
  <ellipse
     style="fill:#0b0008;fill-opacity:1;stroke:#00000a;stroke-width:4.57514906;stroke-miterlimit:10;stroke-dasharray:none;stroke-dashoffset:0;stroke-opacity:1"
     id="path1065"
     cx="268.8555"
     cy="265.93079"
     rx="2.1128187"
     ry="2.112819" />
  <ellipse
     ry="2.112819"
     rx="2.1128187"
     cy="161.8152"
     cx="231.2948"
     id="ellipse1067"
     style="fill:#0b0008;fill-opacity:1;stroke:#00000a;stroke-width:4.57514906;stroke-miterlimit:10;stroke-dasharray:none;stroke-dashoffset:0;stroke-opacity:1" />
  <ellipse
     ry="2.112819"
     rx="2.1128187"
     cy="226.39323"
     cx="187.80347"
     id="ellipse1069"
     style="fill:#0b0008;fill-opacity:1;stroke:#00000a;stroke-width:4.57514906;stroke-miterlimit:10;stroke-dasharray:none;stroke-dashoffset:0;stroke-opacity:1" />
  <ellipse
     ry="2.112819"
     rx="2.1128187"
     cy="225.73427"
     cx="299.16763"
     id="ellipse1071"
     style="fill:#0b0008;fill-opacity:1;stroke:#00000a;stroke-width:4.57514906;stroke-miterlimit:10;stroke-dasharray:none;stroke-dashoffset:0;stroke-opacity:1" />
  <path
     style="fill:none;stroke:#000000;stroke-width:3.1603392;stroke-linecap:butt;stroke-linejoin:miter;stroke-opacity:1;stroke-miterlimit:4;stroke-dasharray:none"
     d="m 233.27168,163.13311 c -1.97689,3.95376 36.90173,103.45666 36.90173,103.45666"
     id="path1073"
     inkscape:connector-curvature="0" />
  <path
     style="fill:none;stroke:#000000;stroke-width:3.1603392;stroke-linecap:butt;stroke-linejoin:miter;stroke-opacity:1;stroke-miterlimit:4;stroke-dasharray:none"
     d="m 190.4393,225.0753 106.75145,1.31792"
     id="path1075"
     inkscape:connector-curvature="0" />
</svg>
