<?xml version="1.0" encoding="UTF-8" standalone="no"?>
<svg
   xmlns:dc="http://purl.org/dc/elements/1.1/"
   xmlns:cc="http://creativecommons.org/ns#"
   xmlns:rdf="http://www.w3.org/1999/02/22-rdf-syntax-ns#"
   xmlns:svg="http://www.w3.org/2000/svg"
   xmlns="http://www.w3.org/2000/svg"
   xmlns:xlink="http://www.w3.org/1999/xlink"
   xmlns:sodipodi="http://sodipodi.sourceforge.net/DTD/sodipodi-0.dtd"
   xmlns:inkscape="http://www.inkscape.org/namespaces/inkscape"
   inkscape:version="1.1-dev (ce96f98, 2020-04-08)"
   sodipodi:docname="elipse_circulo2a.svg"
   id="svg1184"
   viewBox="0 0 939 593"
   height="19.533414879924067cm"
   width="30.911464624795663cm"
   version="1.1">
  <metadata
     id="metadata1190">
    <rdf:RDF>
      <cc:Work
         rdf:about="">
        <dc:format>image/svg+xml</dc:format>
        <dc:type
           rdf:resource="http://purl.org/dc/dcmitype/StillImage" />
      </cc:Work>
    </rdf:RDF>
  </metadata>
  <defs
     id="defs1188">
    <linearGradient
       id="linearGradient1593"
       inkscape:collect="always">
      <stop
         id="stop1589"
         offset="0"
         style="stop-color:#cccccc;stop-opacity:1;" />
      <stop
         id="stop1591"
         offset="1"
         style="stop-color:#cccccc;stop-opacity:0;" />
    </linearGradient>
    <clipPath
       id="clip3b6dfec1-fe43-4947-8547-a37e8b00ba6c">
      <path
         d="M 0,0 V 594 H 940 V 0 Z"
         id="path835" />
    </clipPath>
    <clipPath
       id="clip6debfe80-685a-4593-bea5-32f12853b48d">
      <path
         id="path843"
         d="M 0,0 V 594 H 940 V 0 Z" />
    </clipPath>
    <clipPath
       id="clip69185cb8-d592-4679-89bb-24c3cf7689ac">
      <path
         id="path856"
         d="M 0,0 V 594 H 940 V 0 Z" />
    </clipPath>
    <clipPath
       id="clipe12da4b6-aa19-41dd-a467-1957660802e0">
      <path
         id="path869"
         d="M 0,0 V 594 H 940 V 0 Z" />
    </clipPath>
    <clipPath
       id="clip9435b2d9-4fda-4400-991f-784152ab1ab9">
      <path
         id="path882"
         d="M 0,0 V 594 H 940 V 0 Z" />
    </clipPath>
    <clipPath
       id="clip14c87100-b893-4e7f-b749-73bacdd674f8">
      <path
         id="path895"
         d="M 0,0 V 594 H 940 V 0 Z" />
    </clipPath>
    <clipPath
       id="clip65c122c6-13fd-481a-86e2-7986b4bc2a4d">
      <path
         id="path908"
         d="M 0,0 V 594 H 940 V 0 Z" />
    </clipPath>
    <clipPath
       id="clipa9a0bafa-e8c7-41ea-843c-71e400e2870a">
      <path
         id="path921"
         d="M 0,0 V 594 H 940 V 0 Z" />
    </clipPath>
    <clipPath
       id="clipf7cdede5-ffd9-4378-a882-06b63434c50b">
      <path
         id="path934"
         d="M 0,0 V 594 H 940 V 0 Z" />
    </clipPath>
    <clipPath
       id="clip86a3e68a-e19c-4416-8d89-b23013b7408e">
      <path
         id="path947"
         d="M 0,0 V 594 H 940 V 0 Z" />
    </clipPath>
    <clipPath
       id="clipf37feb58-1536-481f-8e7c-db608ebbaae1">
      <path
         id="path960"
         d="M 0,0 V 594 H 940 V 0 Z" />
    </clipPath>
    <clipPath
       id="clip936625dd-b0a5-478d-962d-26ef91e5199a">
      <path
         id="path973"
         d="M 0,0 V 594 H 940 V 0 Z" />
    </clipPath>
    <clipPath
       id="clipf2d5e967-d6c3-4592-aafc-84ab1c6b4f94">
      <path
         id="path986"
         d="M 0,0 V 594 H 940 V 0 Z" />
    </clipPath>
    <clipPath
       id="clipb53f11d5-fcc1-4f49-bf74-cc8ae0c0c550">
      <path
         id="path999"
         d="M 0,0 V 594 H 940 V 0 Z" />
    </clipPath>
    <clipPath
       id="clipa40c99b0-581a-4bd5-ae33-32d14c2a8a42">
      <path
         id="path1012"
         d="M 0,0 V 594 H 940 V 0 Z" />
    </clipPath>
    <clipPath
       id="clip1e1ed2a9-aa6a-4ebd-822f-52c12b4dccf3">
      <path
         id="path1025"
         d="M 0,0 V 594 H 940 V 0 Z" />
    </clipPath>
    <clipPath
       id="clipf92655b1-934d-4a27-8b81-29dc0c799e3f">
      <path
         id="path1038"
         d="M 0,0 V 594 H 940 V 0 Z" />
    </clipPath>
    <clipPath
       id="clip53d1198c-a224-4771-8215-b97a32bb1dc9">
      <path
         id="path1051"
         d="M 0,0 V 594 H 940 V 0 Z" />
    </clipPath>
    <clipPath
       id="clip4cabd382-351a-474d-870a-f3a3510092ed">
      <path
         id="path1064"
         d="M 0,0 V 594 H 940 V 0 Z" />
    </clipPath>
    <clipPath
       id="clip2c4a4f3c-5d8c-4206-8597-2bae61261a50">
      <path
         id="path1077"
         d="M 0,0 V 594 H 940 V 0 Z" />
    </clipPath>
    <clipPath
       id="clipbff6877d-dcfd-4417-bef3-8e1d32978aa5">
      <path
         id="path1090"
         d="M 0,0 V 594 H 940 V 0 Z" />
    </clipPath>
    <clipPath
       id="clip2d2c3d5d-fbd4-40f1-b5fb-e47ba7af8269">
      <path
         id="path1103"
         d="M 0,0 V 594 H 940 V 0 Z" />
    </clipPath>
    <clipPath
       id="clipe719f4e9-4697-4376-91bf-db61066ffee1">
      <path
         id="path1116"
         d="M 0,0 V 594 H 940 V 0 Z" />
    </clipPath>
    <clipPath
       id="clipdaff2a4f-ed0d-445b-acce-29d966f44180">
      <path
         id="path1129"
         d="M 0,0 V 594 H 940 V 0 Z" />
    </clipPath>
    <clipPath
       id="clip00a979ab-e866-410b-b7aa-08b53b44e0de">
      <path
         id="path1142"
         d="M 0,0 V 594 H 940 V 0 Z" />
    </clipPath>
    <clipPath
       id="clipd63e83c3-ac93-4e7c-b552-4917aaf51842">
      <path
         id="path1155"
         d="M 0,0 V 594 H 940 V 0 Z" />
    </clipPath>
    <clipPath
       id="clip94c4cbb3-a5ee-446e-ad62-123ffb9d6962">
      <path
         id="path1168"
         d="M 0,0 V 594 H 940 V 0 Z" />
    </clipPath>
    <linearGradient
       gradientUnits="userSpaceOnUse"
       y2="306.565"
       x2="544.84"
       y1="306.565"
       x1="66.749"
       id="linearGradient1595"
       xlink:href="#linearGradient1593"
       inkscape:collect="always" />
  </defs>
  <sodipodi:namedview
     inkscape:current-layer="svg1184"
     inkscape:window-maximized="0"
     inkscape:window-y="23"
     inkscape:window-x="0"
     inkscape:cy="369.1354"
     inkscape:cx="450.29298"
     inkscape:zoom="0.55122482"
     showgrid="false"
     id="namedview1186"
     inkscape:window-height="683"
     inkscape:window-width="1258"
     inkscape:pageshadow="2"
     inkscape:pageopacity="0"
     guidetolerance="10"
     gridtolerance="10"
     objecttolerance="10"
     borderopacity="1"
     bordercolor="#666666"
     pagecolor="#ffffff" />
  <title
     id="title833" />
  <!-- default stroke -->
  <g
     transform="translate(-8.7484469,1.4580745)"
     id="g854"
     clip-path="url(#clip2)"
     style="stroke-width:1;stroke-linecap:square;stroke-linejoin:miter;stroke-miterlimit:10;stroke-dasharray:none;stroke-dashoffset:0;fill-opacity:1;fill:url(#linearGradient1595)">
    <g
       style="fill-opacity:1;fill:url(#linearGradient1595)"
       id="g852"
       fill="#993300"
       stroke="none"
       fill-rule="evenodd"
       fill-opacity="0.098039">
      <path
         style="fill-opacity:1;fill:url(#linearGradient1595)"
         id="path846"
         d="M 544.84,119.38 66.749,270.47 521.87,493.75 Z" />
      <title
         style="fill-opacity:1;fill:url(#linearGradient1595)"
         id="title848">Triângulo t1</title>
      <desc
         style="fill-opacity:1;fill:url(#linearGradient1595)"
         id="desc850">Triângulo t1: Polígono G, F, H</desc>
    </g>
    <!-- drawing style -->
  </g>
  <g
     transform="translate(-8.7484469,1.4580745)"
     id="g867"
     clip-path="url(#clip3)"
     style="stroke-width:3.42957206;stroke-linecap:square;stroke-linejoin:miter;stroke-miterlimit:10;stroke-dasharray:none;stroke-dashoffset:0">
    <g
       style="stroke-width:3.42957206;stroke-miterlimit:10;stroke-dasharray:none"
       id="g865"
       stroke="#ff0000"
       stroke-opacity="0.69804"
       fill="none"
       stroke-linecap="round"
       stroke-width="2.5"
       stroke-linejoin="round">
      <path
         style="stroke-width:3.42957206;stroke-miterlimit:10;stroke-dasharray:none"
         id="path859"
         d="m 533.89,294.53 c 0,-67.05 -60.8,-121.41 -135.8,-121.41 -75,0 -135.79,54.36 -135.79,121.41 0,67.06 60.79,121.42 135.79,121.42 75,0 135.8,-54.36 135.8,-121.42 z" />
      <title
         id="title861">Elipse c</title>
      <desc
         id="desc863">Elipse c: Elipse com focos A, B passando por C</desc>
    </g>
    <!-- drawing style -->
  </g>
  <g
     transform="translate(-8.7484469,1.4580745)"
     id="g880"
     clip-path="url(#clip4)"
     style="stroke-width:3.42957206;stroke-linecap:square;stroke-linejoin:miter;stroke-miterlimit:10;stroke-dasharray:none;stroke-dashoffset:0">
    <g
       style="stroke-width:3.42957206;stroke-miterlimit:10;stroke-dasharray:none"
       id="g878"
       stroke="#0000ff"
       stroke-opacity="0.69804"
       fill="none"
       stroke-linecap="round"
       stroke-width="2.5"
       stroke-linejoin="round">
      <path
         style="stroke-width:3.42957206;stroke-miterlimit:10;stroke-dasharray:none"
         id="path872"
         d="m 608.87,294.53 c 0,150 -121.6,271.59 -271.6,271.59 -149.99,0 -271.589,-121.59 -271.589,-271.59 0,-150 121.599,-271.591 271.589,-271.591 150,0 271.6,121.591 271.6,271.591 z" />
      <title
         id="title874">Círculo d</title>
      <desc
         id="desc876">Círculo d: Círculo por B' com centro A</desc>
    </g>
    <!-- drawing style -->
  </g>
  <g
     transform="translate(-8.7484469,1.4580745)"
     id="g893"
     clip-path="url(#clip5)"
     style="stroke-width:1;stroke-linecap:square;stroke-linejoin:miter;stroke-miterlimit:10;stroke-dasharray:none;stroke-dashoffset:0">
    <g
       id="g891"
       stroke="#000000"
       stroke-opacity="0.69804"
       fill="none"
       stroke-linecap="round"
       stroke-width="2.5"
       stroke-linejoin="round">
      <path
         sodipodi:nodetypes="cc"
         id="path885"
         d="M -5,293.15 661.38391,82.543074" />
      <title
         id="title887">Reta f</title>
      <desc
         id="desc889">Reta f: Tangente a c passando por D</desc>
    </g>
    <!-- drawing style -->
  </g>
  <g
     transform="translate(-8.7484469,1.4580745)"
     id="g906"
     clip-path="url(#clip6)"
     style="stroke-width:1;stroke-linecap:square;stroke-linejoin:miter;stroke-miterlimit:10;stroke-dasharray:none;stroke-dashoffset:0">
    <g
       id="g904"
       stroke="#000000"
       stroke-opacity="0.69804"
       fill="none"
       stroke-linecap="round"
       stroke-width="2.5"
       stroke-linejoin="round">
      <path
         id="path898"
         d="M 555.14,599 364.25,-5" />
      <title
         id="title900">Reta g</title>
      <desc
         id="desc902">Reta g: Reta passando por B e perpendicular a f</desc>
    </g>
    <!-- drawing style -->
  </g>
  <g
     transform="translate(-8.7484469,1.4580745)"
     id="g919"
     clip-path="url(#clip7)"
     style="stroke-width:1;stroke-linecap:square;stroke-linejoin:miter;stroke-miterlimit:10;stroke-dasharray:none;stroke-dashoffset:0">
    <g
       id="g917"
       stroke="#993300"
       stroke-opacity="0.69804"
       fill="none"
       stroke-linecap="round"
       stroke-width="2.5"
       stroke-linejoin="round">
      <path
         id="path911"
         d="M 544.84,119.38 66.749,270.47" />
      <title
         id="title913">Segmento h_1</title>
      <desc
         id="desc915">Segmento h_1: Segmento G, F</desc>
    </g>
    <!-- drawing style -->
  </g>
  <g
     transform="translate(-8.7484469,1.4580745)"
     id="g932"
     clip-path="url(#clip8)"
     style="stroke-width:1;stroke-linecap:square;stroke-linejoin:miter;stroke-miterlimit:10;stroke-dasharray:none;stroke-dashoffset:0">
    <g
       id="g930"
       stroke="#993300"
       stroke-opacity="0.69804"
       fill="none"
       stroke-linecap="round"
       stroke-width="2.5"
       stroke-linejoin="round">
      <path
         id="path924"
         d="M 66.749,270.47 521.87,493.75" />
      <title
         id="title926">Segmento g_1</title>
      <desc
         id="desc928">Segmento g_1: Segmento F, H</desc>
    </g>
    <!-- drawing style -->
  </g>
  <g
     transform="translate(-8.7484469,1.4580745)"
     id="g945"
     clip-path="url(#clip9)"
     style="stroke-width:1;stroke-linecap:square;stroke-linejoin:miter;stroke-miterlimit:10;stroke-dasharray:none;stroke-dashoffset:0">
    <g
       id="g943"
       stroke="#993300"
       stroke-opacity="0.69804"
       fill="none"
       stroke-linecap="round"
       stroke-width="2.5"
       stroke-linejoin="round">
      <path
         id="path937"
         d="M 521.87,493.75 544.84,119.38" />
      <title
         id="title939">Segmento f_1</title>
      <desc
         id="desc941">Segmento f_1: Segmento H, G</desc>
    </g>
    <!-- drawing style -->
  </g>
  <g
     transform="translate(-8.7484469,1.4580745)"
     id="g958"
     clip-path="url(#clip10)"
     style="stroke-width:1;stroke-linecap:square;stroke-linejoin:miter;stroke-miterlimit:10;stroke-dasharray:none;stroke-dashoffset:0">
    <g
       id="g956"
       fill="#4d4dff"
       stroke="none"
       fill-rule="nonzero"
       fill-opacity="1">
      <path
         id="path950"
         d="m 342.27,294.53 c 0,2.76 -2.23,5 -5,5 -2.76,0 -5,-2.24 -5,-5 0,-2.76 2.24,-5 5,-5 2.77,0 5,2.24 5,5 z" />
      <title
         id="title952">Ponto A</title>
      <desc
         id="desc954">A = (-2, 0)</desc>
    </g>
    <!-- drawing style -->
  </g>
  <g
     transform="translate(-8.7484469,1.4580745)"
     id="g971"
     clip-path="url(#clip11)"
     style="stroke-width:1;stroke-linecap:square;stroke-linejoin:miter;stroke-miterlimit:10;stroke-dasharray:none;stroke-dashoffset:0">
    <g
       id="g969"
       stroke="#000000"
       stroke-opacity="1"
       fill="none"
       stroke-linecap="round"
       stroke-linejoin="round">
      <path
         id="path963"
         d="m 342.27,294.53 c 0,2.76 -2.23,5 -5,5 -2.76,0 -5,-2.24 -5,-5 0,-2.76 2.24,-5 5,-5 2.77,0 5,2.24 5,5 z" />
      <title
         id="title965">Ponto A</title>
      <desc
         id="desc967">A = (-2, 0)</desc>
    </g>
    <!-- drawing style -->
  </g>
  <g
     transform="translate(-8.7484469,1.4580745)"
     id="g984"
     clip-path="url(#clip12)"
     style="stroke-width:1;stroke-linecap:square;stroke-linejoin:miter;stroke-miterlimit:10;stroke-dasharray:none;stroke-dashoffset:0">
    <g
       id="g982"
       fill="#7d7dff"
       stroke="none"
       fill-rule="nonzero"
       fill-opacity="1">
      <path
         id="path976"
         d="m 463.91,294.53 c 0,2.76 -2.24,5 -5,5 -2.76,0 -5,-2.24 -5,-5 0,-2.76 2.24,-5 5,-5 2.76,0 5,2.24 5,5 z" />
      <title
         id="title978">Ponto B</title>
      <desc
         id="desc980">Ponto B: Ponto sobre EixoX</desc>
    </g>
    <!-- drawing style -->
  </g>
  <g
     transform="translate(-8.7484469,1.4580745)"
     id="g997"
     clip-path="url(#clip13)"
     style="stroke-width:1;stroke-linecap:square;stroke-linejoin:miter;stroke-miterlimit:10;stroke-dasharray:none;stroke-dashoffset:0">
    <g
       id="g995"
       stroke="#000000"
       stroke-opacity="1"
       fill="none"
       stroke-linecap="round"
       stroke-linejoin="round">
      <path
         id="path989"
         d="m 463.91,294.53 c 0,2.76 -2.24,5 -5,5 -2.76,0 -5,-2.24 -5,-5 0,-2.76 2.24,-5 5,-5 2.76,0 5,2.24 5,5 z" />
      <title
         id="title991">Ponto B</title>
      <desc
         id="desc993">Ponto B: Ponto sobre EixoX</desc>
    </g>
    <!-- drawing style -->
  </g>
  <g
     transform="translate(-8.7484469,1.4580745)"
     id="g1010"
     clip-path="url(#clip14)"
     style="stroke-width:1;stroke-linecap:square;stroke-linejoin:miter;stroke-miterlimit:10;stroke-dasharray:none;stroke-dashoffset:0">
    <g
       id="g1008"
       fill="#4d4dff"
       stroke="none"
       fill-rule="nonzero"
       fill-opacity="1">
      <path
         id="path1002"
         d="m 538.72,288.45 c 0,2.76 -2.24,5 -5,5 -2.76,0 -5,-2.24 -5,-5 0,-2.76 2.24,-5 5,-5 2.76,0 5,2.24 5,5 z" />
      <title
         id="title1004">Ponto C</title>
      <desc
         id="desc1006">C = (4.46, 0.2)</desc>
    </g>
    <!-- drawing style -->
  </g>
  <g
     transform="translate(-8.7484469,1.4580745)"
     id="g1023"
     clip-path="url(#clip15)"
     style="stroke-width:1;stroke-linecap:square;stroke-linejoin:miter;stroke-miterlimit:10;stroke-dasharray:none;stroke-dashoffset:0">
    <g
       id="g1021"
       stroke="#000000"
       stroke-opacity="1"
       fill="none"
       stroke-linecap="round"
       stroke-linejoin="round">
      <path
         id="path1015"
         d="m 538.72,288.45 c 0,2.76 -2.24,5 -5,5 -2.76,0 -5,-2.24 -5,-5 0,-2.76 2.24,-5 5,-5 2.76,0 5,2.24 5,5 z" />
      <title
         id="title1017">Ponto C</title>
      <desc
         id="desc1019">C = (4.46, 0.2)</desc>
    </g>
    <!-- drawing style -->
  </g>
  <g
     transform="translate(-8.7484469,1.4580745)"
     id="g1036"
     clip-path="url(#clip16)"
     style="stroke-width:1;stroke-linecap:square;stroke-linejoin:miter;stroke-miterlimit:10;stroke-dasharray:none;stroke-dashoffset:0">
    <g
       id="g1034"
       fill="#7d7dff"
       stroke="none"
       fill-rule="nonzero"
       fill-opacity="1">
      <path
         id="path1028"
         d="m 357.84,180.06 c 0,2.76 -2.24,5 -5,5 -2.76,0 -5,-2.24 -5,-5 0,-2.76 2.24,-5 5,-5 2.76,0 5,2.24 5,5 z" />
      <title
         id="title1030">Ponto D</title>
      <desc
         id="desc1032">Ponto D: Ponto sobre c</desc>
    </g>
    <!-- drawing style -->
  </g>
  <g
     transform="translate(-8.7484469,1.4580745)"
     id="g1049"
     clip-path="url(#clip17)"
     style="stroke-width:1;stroke-linecap:square;stroke-linejoin:miter;stroke-miterlimit:10;stroke-dasharray:none;stroke-dashoffset:0">
    <g
       id="g1047"
       stroke="#000000"
       stroke-opacity="1"
       fill="none"
       stroke-linecap="round"
       stroke-linejoin="round">
      <path
         id="path1041"
         d="m 357.84,180.06 c 0,2.76 -2.24,5 -5,5 -2.76,0 -5,-2.24 -5,-5 0,-2.76 2.24,-5 5,-5 2.76,0 5,2.24 5,5 z" />
      <title
         id="title1043">Ponto D</title>
      <desc
         id="desc1045">Ponto D: Ponto sobre c</desc>
    </g>
    <!-- drawing style -->
  </g>
  <g
     transform="translate(-8.7484469,1.4580745)"
     id="g1062"
     clip-path="url(#clip18)"
     style="stroke-width:1;stroke-linecap:square;stroke-linejoin:miter;stroke-miterlimit:10;stroke-dasharray:none;stroke-dashoffset:0">
    <g
       id="g1060"
       fill="#444444"
       stroke="none"
       fill-rule="nonzero"
       fill-opacity="1">
      <path
         id="path1054"
         d="m 420.39,159.97 c 0,2.21 -1.8,4 -4,4 -2.21,0 -4,-1.79 -4,-4 0,-2.21 1.79,-4 4,-4 2.2,0 4,1.79 4,4 z" />
      <title
         id="title1056">Ponto E</title>
      <desc
         id="desc1058">Ponto E: Interseção de g, f</desc>
    </g>
    <!-- drawing style -->
  </g>
  <g
     transform="translate(-8.7484469,1.4580745)"
     id="g1075"
     clip-path="url(#clip19)"
     style="stroke-width:1;stroke-linecap:square;stroke-linejoin:miter;stroke-miterlimit:10;stroke-dasharray:none;stroke-dashoffset:0">
    <g
       id="g1073"
       stroke="#000000"
       stroke-opacity="1"
       fill="none"
       stroke-linecap="round"
       stroke-linejoin="round">
      <path
         id="path1067"
         d="m 420.39,159.97 c 0,2.21 -1.8,4 -4,4 -2.21,0 -4,-1.79 -4,-4 0,-2.21 1.79,-4 4,-4 2.2,0 4,1.79 4,4 z" />
      <title
         id="title1069">Ponto E</title>
      <desc
         id="desc1071">Ponto E: Interseção de g, f</desc>
    </g>
    <!-- drawing style -->
  </g>
  <g
     transform="translate(-8.7484469,1.4580745)"
     id="g1088"
     clip-path="url(#clip20)"
     style="stroke-width:1;stroke-linecap:square;stroke-linejoin:miter;stroke-miterlimit:10;stroke-dasharray:none;stroke-dashoffset:0">
    <g
       id="g1086"
       fill="#0000ff"
       stroke="none"
       fill-rule="nonzero"
       fill-opacity="1">
      <path
         id="path1080"
         d="m 378.86,25.414 c 0,2.761 -2.24,5 -5,5 -2.76,0 -5,-2.239 -5,-5 0,-2.762 2.24,-5 5,-5 2.76,0 5,2.238 5,5 z" />
      <title
         id="title1082">Ponto B'</title>
      <desc
         id="desc1084">Ponto B': Reflexão (ou Inversão) de B em relação a f</desc>
    </g>
    <!-- drawing style -->
  </g>
  <g
     transform="translate(-8.7484469,1.4580745)"
     id="g1101"
     clip-path="url(#clip21)"
     style="stroke-width:1;stroke-linecap:square;stroke-linejoin:miter;stroke-miterlimit:10;stroke-dasharray:none;stroke-dashoffset:0">
    <g
       id="g1099"
       stroke="#000000"
       stroke-opacity="1"
       fill="none"
       stroke-linecap="round"
       stroke-linejoin="round">
      <path
         id="path1093"
         d="m 378.86,25.414 c 0,2.761 -2.24,5 -5,5 -2.76,0 -5,-2.239 -5,-5 0,-2.762 2.24,-5 5,-5 2.76,0 5,2.238 5,5 z" />
      <title
         id="title1095">Ponto B'</title>
      <desc
         id="desc1097">Ponto B': Reflexão (ou Inversão) de B em relação a f</desc>
    </g>
    <!-- drawing style -->
  </g>
  <g
     transform="translate(-8.7484469,1.4580745)"
     id="g1114"
     clip-path="url(#clip22)"
     style="stroke-width:1;stroke-linecap:square;stroke-linejoin:miter;stroke-miterlimit:10;stroke-dasharray:none;stroke-dashoffset:0">
    <g
       id="g1112"
       fill="#444444"
       stroke="none"
       fill-rule="nonzero"
       fill-opacity="1">
      <path
         id="path1106"
         d="m 70.749,270.47 c 0,2.21 -1.791,4 -4,4 -2.209,0 -4,-1.79 -4,-4 0,-2.21 1.791,-4 4,-4 2.209,0 4,1.79 4,4 z" />
      <title
         id="title1108">Ponto F</title>
      <desc
         id="desc1110">Ponto F: Interseção de d, f</desc>
    </g>
    <!-- drawing style -->
  </g>
  <g
     transform="translate(-8.7484469,1.4580745)"
     id="g1127"
     clip-path="url(#clip23)"
     style="stroke-width:1;stroke-linecap:square;stroke-linejoin:miter;stroke-miterlimit:10;stroke-dasharray:none;stroke-dashoffset:0">
    <g
       id="g1125"
       stroke="#000000"
       stroke-opacity="1"
       fill="none"
       stroke-linecap="round"
       stroke-linejoin="round">
      <path
         id="path1119"
         d="m 70.749,270.47 c 0,2.21 -1.791,4 -4,4 -2.209,0 -4,-1.79 -4,-4 0,-2.21 1.791,-4 4,-4 2.209,0 4,1.79 4,4 z" />
      <title
         id="title1121">Ponto F</title>
      <desc
         id="desc1123">Ponto F: Interseção de d, f</desc>
    </g>
    <!-- drawing style -->
  </g>
  <g
     transform="translate(-8.7484469,1.4580745)"
     id="g1140"
     clip-path="url(#clip24)"
     style="stroke-width:1;stroke-linecap:square;stroke-linejoin:miter;stroke-miterlimit:10;stroke-dasharray:none;stroke-dashoffset:0">
    <g
       id="g1138"
       fill="#444444"
       stroke="none"
       fill-rule="nonzero"
       fill-opacity="1">
      <path
         id="path1132"
         d="m 548.84,119.38 c 0,2.2 -1.79,4 -4,4 -2.21,0 -4,-1.8 -4,-4 0,-2.21 1.79,-4 4,-4 2.21,0 4,1.79 4,4 z" />
      <title
         id="title1134">Ponto G</title>
      <desc
         id="desc1136">Ponto G: Interseção de d, f</desc>
    </g>
    <!-- drawing style -->
  </g>
  <g
     transform="translate(-8.7484469,1.4580745)"
     id="g1153"
     clip-path="url(#clip25)"
     style="stroke-width:1;stroke-linecap:square;stroke-linejoin:miter;stroke-miterlimit:10;stroke-dasharray:none;stroke-dashoffset:0">
    <g
       id="g1151"
       stroke="#000000"
       stroke-opacity="1"
       fill="none"
       stroke-linecap="round"
       stroke-linejoin="round">
      <path
         id="path1145"
         d="m 548.84,119.38 c 0,2.2 -1.79,4 -4,4 -2.21,0 -4,-1.8 -4,-4 0,-2.21 1.79,-4 4,-4 2.21,0 4,1.79 4,4 z" />
      <title
         id="title1147">Ponto G</title>
      <desc
         id="desc1149">Ponto G: Interseção de d, f</desc>
    </g>
    <!-- drawing style -->
  </g>
  <g
     transform="translate(-8.7484469,1.4580745)"
     id="g1166"
     clip-path="url(#clip26)"
     style="stroke-width:1;stroke-linecap:square;stroke-linejoin:miter;stroke-miterlimit:10;stroke-dasharray:none;stroke-dashoffset:0">
    <g
       id="g1164"
       fill="#444444"
       stroke="none"
       fill-rule="nonzero"
       fill-opacity="1">
      <path
         id="path1158"
         d="m 525.87,493.75 c 0,2.21 -1.79,4 -4,4 -2.21,0 -4,-1.79 -4,-4 0,-2.21 1.79,-4 4,-4 2.21,0 4,1.79 4,4 z" />
      <title
         id="title1160">Ponto H</title>
      <desc
         id="desc1162">Ponto H: Interseção de d, g</desc>
    </g>
    <!-- drawing style -->
  </g>
  <g
     transform="translate(-8.7484469,1.4580745)"
     id="g1179"
     clip-path="url(#clip27)"
     style="stroke-width:1;stroke-linecap:square;stroke-linejoin:miter;stroke-miterlimit:10;stroke-dasharray:none;stroke-dashoffset:0">
    <g
       id="g1177"
       stroke="#000000"
       stroke-opacity="1"
       fill="none"
       stroke-linecap="round"
       stroke-linejoin="round">
      <path
         id="path1171"
         d="m 525.87,493.75 c 0,2.21 -1.79,4 -4,4 -2.21,0 -4,-1.79 -4,-4 0,-2.21 1.79,-4 4,-4 2.21,0 4,1.79 4,4 z" />
      <title
         id="title1173">Ponto H</title>
      <desc
         id="desc1175">Ponto H: Interseção de d, g</desc>
    </g>
    <!-- drawing style -->
  </g>
  <text
     id="text1194"
     y="332.25693"
     x="325.1506"
     style="font-style:normal;font-weight:normal;font-size:32.1491px;line-height:1.25;font-family:sans-serif;fill:#000000;fill-opacity:1;stroke:none;stroke-width:0.803727"
     xml:space="preserve"><tspan
       style="stroke-width:0.803727"
       y="332.25693"
       x="325.1506"
       id="tspan1192"
       sodipodi:role="line">$F_1$</tspan></text>
  <text
     transform="scale(0.97655042,1.0240127)"
     id="text1198"
     y="154.53682"
     x="299.57501"
     style="font-style:normal;font-weight:normal;font-size:21.384px;line-height:1.25;font-family:sans-serif;fill:#0c0008;fill-opacity:1;stroke:none;stroke-width:0.737494;stroke-miterlimit:10;stroke-dasharray:none"
     xml:space="preserve"><tspan
       style="fill:#0c0008;fill-opacity:1;stroke-width:0.737494;stroke-miterlimit:10;stroke-dasharray:none"
       y="154.53682"
       x="299.57501"
       id="tspan1196"
       sodipodi:role="line">$P_0$</tspan></text>
  <text
     transform="scale(0.9235785,1.082745)"
     id="text1575"
     y="129.99437"
     x="438.51688"
     style="font-style:normal;font-weight:normal;font-size:20.2241px;line-height:1.25;font-family:sans-serif;fill:#000000;fill-opacity:1;stroke:none;stroke-width:0.505602"
     xml:space="preserve"><tspan
       style="stroke-width:0.505602"
       y="129.99437"
       x="438.51688"
       id="tspan1573"
       sodipodi:role="line">$Q_0$</tspan></text>
  <text
     transform="scale(0.78054526,1.2811557)"
     id="text1579"
     y="77.315338"
     x="205.56436"
     style="font-style:normal;font-weight:normal;font-size:17.6944px;line-height:1.25;font-family:sans-serif;fill:#000000;fill-opacity:1;stroke:none;stroke-width:0.44236"
     xml:space="preserve"><tspan
       style="stroke-width:0.44236"
       y="77.315338"
       x="205.56436"
       id="tspan1577"
       sodipodi:role="line">$\mathcal{C}$</tspan></text>
  <text
     transform="scale(0.82546433,1.2114394)"
     id="text1599"
     y="326.87134"
     x="411.26065"
     style="font-style:normal;font-weight:normal;font-size:21.3211px;line-height:1.25;font-family:sans-serif;fill:#000000;fill-opacity:1;stroke:none;stroke-width:0.533027"
     xml:space="preserve"><tspan
       style="stroke-width:0.533027"
       y="326.87134"
       x="411.26065"
       id="tspan1597"
       sodipodi:role="line">$\mahcal{E}$</tspan></text>
  <text
     id="text1607"
     y="15.854784"
     x="399.51242"
     style="font-style:normal;font-weight:normal;font-size:32.1491px;line-height:1.25;font-family:sans-serif;fill:#000000;fill-opacity:1;stroke:none;stroke-width:0.803727"
     xml:space="preserve"><tspan
       style="stroke-width:0.803727"
       y="15.854784"
       x="399.51242"
       id="tspan1605"
       sodipodi:role="line">$P_2$</tspan></text>
</svg>
