<?xml version="1.0" encoding="UTF-8" standalone="no"?>
<svg
   version="1.1"
   width="15.465975742177836cm"
   height="10.861601284582907cm"
   viewBox="0 0 916 642"
   id="svg1697"
   sodipodi:docname="elipse_hiperbole_focus.svg"
   inkscape:version="1.1-dev (0486c1a, 2020-10-10)"
   xmlns:inkscape="http://www.inkscape.org/namespaces/inkscape"
   xmlns:sodipodi="http://sodipodi.sourceforge.net/DTD/sodipodi-0.dtd"
   xmlns="http://www.w3.org/2000/svg"
   xmlns:svg="http://www.w3.org/2000/svg">
  <defs
     id="defs1701">
    <clipPath
       id="clip1">
      <path
         d="M 0,0 V 644 H 917 V 0 Z"
         id="path1406" />
    </clipPath>
    <clipPath
       id="clip2">
      <path
         d="M 0,0 V 644 H 917 V 0 Z"
         id="path1415" />
    </clipPath>
    <clipPath
       id="clip3">
      <path
         d="M 0,0 V 644 H 917 V 0 Z"
         id="path1424" />
    </clipPath>
    <clipPath
       id="clip4">
      <path
         d="M 0,0 V 644 H 917 V 0 Z"
         id="path1433" />
    </clipPath>
    <clipPath
       id="clip5">
      <path
         d="M 0,0 V 644 H 917 V 0 Z"
         id="path1442" />
    </clipPath>
    <clipPath
       id="clip6">
      <path
         d="M 0,0 V 644 H 917 V 0 Z"
         id="path1451" />
    </clipPath>
    <clipPath
       id="clip7">
      <path
         d="M 0,0 V 644 H 917 V 0 Z"
         id="path1460" />
    </clipPath>
    <clipPath
       id="clip8">
      <path
         d="M 0,0 V 644 H 917 V 0 Z"
         id="path1469" />
    </clipPath>
    <clipPath
       id="clip9">
      <path
         d="M 0,0 V 644 H 917 V 0 Z"
         id="path1478" />
    </clipPath>
    <clipPath
       id="clip10">
      <path
         d="M 0,0 V 644 H 917 V 0 Z"
         id="path1487" />
    </clipPath>
    <clipPath
       id="clip11">
      <path
         d="M 0,0 V 644 H 917 V 0 Z"
         id="path1496" />
    </clipPath>
    <clipPath
       id="clip12">
      <path
         d="M 0,0 V 644 H 917 V 0 Z"
         id="path1505" />
    </clipPath>
    <clipPath
       id="clip13">
      <path
         d="M 0,0 V 644 H 917 V 0 Z"
         id="path1514" />
    </clipPath>
    <clipPath
       id="clip14">
      <path
         d="M 0,0 V 644 H 917 V 0 Z"
         id="path1523" />
    </clipPath>
    <clipPath
       id="clip15">
      <path
         d="M 0,0 V 644 H 917 V 0 Z"
         id="path1532" />
    </clipPath>
    <clipPath
       id="clip16">
      <path
         d="M 0,0 V 644 H 917 V 0 Z"
         id="path1541" />
    </clipPath>
    <clipPath
       id="clip17">
      <path
         d="M 0,0 V 644 H 917 V 0 Z"
         id="path1550" />
    </clipPath>
    <clipPath
       id="clip18">
      <path
         d="M 0,0 V 644 H 917 V 0 Z"
         id="path1559" />
    </clipPath>
    <clipPath
       id="clip19">
      <path
         d="M 0,0 V 644 H 917 V 0 Z"
         id="path1568" />
    </clipPath>
    <clipPath
       id="clip20">
      <path
         d="M 0,0 V 644 H 917 V 0 Z"
         id="path1577" />
    </clipPath>
    <clipPath
       id="clip21">
      <path
         d="M 0,0 V 644 H 917 V 0 Z"
         id="path1586" />
    </clipPath>
    <clipPath
       id="clip22">
      <path
         d="M 0,0 V 644 H 917 V 0 Z"
         id="path1595" />
    </clipPath>
    <clipPath
       id="clip23">
      <path
         d="M 0,0 V 644 H 917 V 0 Z"
         id="path1604" />
    </clipPath>
    <clipPath
       id="clip24">
      <path
         d="M 0,0 V 644 H 917 V 0 Z"
         id="path1613" />
    </clipPath>
    <clipPath
       id="clip25">
      <path
         d="M 0,0 V 644 H 917 V 0 Z"
         id="path1622" />
    </clipPath>
    <clipPath
       id="clip26">
      <path
         d="M 0,0 V 644 H 917 V 0 Z"
         id="path1631" />
    </clipPath>
    <clipPath
       id="clip27">
      <path
         d="M 0,0 V 644 H 917 V 0 Z"
         id="path1640" />
    </clipPath>
    <clipPath
       id="clip28">
      <path
         d="M 0,0 V 644 H 917 V 0 Z"
         id="path1649" />
    </clipPath>
    <clipPath
       id="clip29">
      <path
         d="M 0,0 V 644 H 917 V 0 Z"
         id="path1658" />
    </clipPath>
    <clipPath
       id="clip30">
      <path
         d="M 0,0 V 644 H 917 V 0 Z"
         id="path1667" />
    </clipPath>
    <clipPath
       id="clip31">
      <path
         d="M 0,0 V 644 H 917 V 0 Z"
         id="path1676" />
    </clipPath>
    <clipPath
       id="clip32">
      <path
         d="M 0,0 V 644 H 917 V 0 Z"
         id="path1685" />
    </clipPath>
  </defs>
  <sodipodi:namedview
     pagecolor="#ffffff"
     bordercolor="#666666"
     borderopacity="1"
     objecttolerance="10"
     gridtolerance="10"
     guidetolerance="10"
     inkscape:pageopacity="0"
     inkscape:pageshadow="2"
     inkscape:window-width="1573"
     inkscape:window-height="792"
     id="namedview1699"
     showgrid="false"
     inkscape:zoom="1.8031247"
     inkscape:cx="282.01044"
     inkscape:cy="213.51823"
     inkscape:window-x="0"
     inkscape:window-y="25"
     inkscape:window-maximized="0"
     inkscape:current-layer="svg1697" />
  <title
     id="title1403" />
  <!-- default stroke -->
  <g
     clip-path="url(#clip1)"
     id="g1413"
     style="stroke-width:1;stroke-linecap:square;stroke-linejoin:miter;stroke-miterlimit:10;stroke-dasharray:none;stroke-dashoffset:0">
    <g
       stroke-linejoin="round"
       stroke-width="2.5"
       stroke-linecap="round"
       fill="none"
       stroke-opacity="1"
       stroke="#ff0000"
       id="g1411">
      <path
         d="M 711.69,332.63 C 711.55,214.33 589.55,118.58 439.2,118.76 c -150.36,0.18 -272.13,96.22 -271.99,214.51 0.14,118.29 122.14,214.04 272.49,213.86 150.36,-0.17 272.13,-96.21 271.99,-214.5 z"
         id="path1409" />
    </g>
    <!-- drawing style -->
  </g>
  <g
     clip-path="url(#clip2)"
     id="g1422"
     style="stroke-width:1;stroke-linecap:square;stroke-linejoin:miter;stroke-miterlimit:10;stroke-dasharray:none;stroke-dashoffset:0">
    <g
       stroke-linejoin="round"
       stroke-width="2.5"
       stroke-linecap="round"
       fill="none"
       stroke-opacity="1"
       stroke="#0000ff"
       id="g1420">
      <path
         d="M -275.93,1134.4 -154.3,994.44 -66.48,892.72 -0.18464,815.35 51.547,754.43 l 41.419,-49.3 33.844,-40.78 28.11,-34.36 23.67,-29.4 20.15,-25.5 17.32,-22.38 14.99,-19.84 13.06,-17.76 11.45,-16.03 10.06,-14.58 8.88,-13.35 7.85,-12.32 6.95,-11.43 6.15,-10.67 5.44,-10.02 4.81,-9.46 4.23,-8.97 3.7,-8.57 3.21,-8.21 2.77,-7.91 2.34,-7.66 1.94,-7.44 1.57,-7.28 1.19,-7.15 0.85,-7.05 0.5,-6.98 0.16,-6.95 -0.17,-6.95 -0.52,-6.98 -0.86,-7.05 -1.22,-7.14 -1.58,-7.28 -1.96,-7.44 -2.36,-7.65 -2.79,-7.91 -3.23,-8.2 -3.72,-8.56 -4.25,-8.96 -4.83,-9.45 -5.46,-10.01 -6.18,-10.65 -6.98,-11.42 -7.88,-12.3 -8.91,-13.33 -10.09,-14.55 -11.49,-16 -13.1,-17.73 L 215.54,113.71 198.17,91.376 177.96,65.921 154.22,36.573 126.03,2.2791 92.089,-38.421 50.555,-87.618 -1.3205,-148.42 -67.798,-225.63 -155.86,-327.14 -277.82,-466.84"
         id="path1418" />
    </g>
    <!-- drawing style -->
  </g>
  <g
     clip-path="url(#clip3)"
     id="g1431"
     style="stroke-width:1;stroke-linecap:square;stroke-linejoin:miter;stroke-miterlimit:10;stroke-dasharray:none;stroke-dashoffset:0">
    <g
       stroke-linejoin="round"
       stroke-width="2.5"
       stroke-linecap="round"
       fill="none"
       stroke-opacity="1"
       stroke="#0000ff"
       id="g1429">
      <path
         d="m 1156.7,1132.7 -121.9,-139.67 -88.1,-101.51 -66.48,-77.21 -51.87,-60.8 -41.54,-49.19 -33.94,-40.7 -28.19,-34.3 -23.74,-29.35 -20.21,-25.45 -17.37,-22.34 -15.04,-19.8 -13.1,-17.73 -11.49,-16 -10.09,-14.56 -8.91,-13.33 -7.88,-12.3 -6.98,-11.41 -6.18,-10.66 -5.46,-10 -4.83,-9.45 -4.25,-8.97 -3.72,-8.55 -3.23,-8.21 -2.79,-7.9 -2.36,-7.65 -1.96,-7.45 -1.58,-7.27 -1.22,-7.14 -0.86,-7.05 -0.52,-6.98 -0.17,-6.95 0.16,-6.95 0.5,-6.99 0.85,-7.05 1.2,-7.14 1.56,-7.28 1.94,-7.45 2.34,-7.66 2.77,-7.91 3.21,-8.21 3.7,-8.56 4.23,-8.98 4.81,-9.46 5.44,-10.02 6.15,-10.67 6.95,-11.43 7.85,-12.31 8.88,-13.36 10.06,-14.58 11.45,-16.02 13.06,-17.76 14.99,-19.84 17.32,-22.382 20.15,-25.502 23.67,-29.405 28.11,-34.3597 33.84,-40.7803 41.42,-49.295 51.73,-60.916 66.3,-77.37 87.82,-101.72 121.6,-139.99"
         id="path1427" />
    </g>
    <!-- drawing style -->
  </g>
  <g
     clip-path="url(#clip4)"
     id="g1440"
     style="stroke-width:1;stroke-linecap:square;stroke-linejoin:miter;stroke-miterlimit:10;stroke-dasharray:none;stroke-dashoffset:0">
    <g
       stroke-linejoin="round"
       stroke-linecap="round"
       fill="none"
       stroke-opacity="1"
       stroke="#00ff00"
       id="g1438">
      <path
         d="M 620.11,649 619.34,-5"
         id="path1436" />
    </g>
    <!-- drawing style -->
  </g>
  <g
     clip-path="url(#clip5)"
     id="g1449"
     style="stroke-width:1;stroke-linecap:square;stroke-linejoin:miter;stroke-miterlimit:10;stroke-dasharray:none;stroke-dashoffset:0">
    <g
       stroke-linejoin="round"
       stroke-width="2"
       stroke-linecap="round"
       fill="none"
       stroke-opacity="1"
       stroke="#000000"
       id="g1447">
      <path
         d="M 469.74,649 628.35,-5"
         id="path1445" />
    </g>
    <!-- drawing style -->
  </g>
  <g
     clip-path="url(#clip6)"
     id="g1458"
     style="stroke-width:1;stroke-linecap:square;stroke-linejoin:miter;stroke-miterlimit:10;stroke-dasharray:none;stroke-dashoffset:0">
    <g
       stroke-linejoin="round"
       stroke-width="2"
       stroke-linecap="round"
       fill="none"
       stroke-opacity="1"
       stroke="#000000"
       id="g1456">
      <path
         d="M 141.54,649 648.01,-5"
         id="path1454" />
    </g>
    <!-- drawing style -->
  </g>
  <g
     clip-path="url(#clip7)"
     id="g1467"
     style="stroke-width:1;stroke-linecap:square;stroke-linejoin:miter;stroke-miterlimit:10;stroke-dasharray:none;stroke-dashoffset:0">
    <g
       stroke-linejoin="round"
       stroke-width="2"
       stroke-linecap="round"
       fill="none"
       stroke-opacity="1"
       stroke="#000000"
       id="g1465">
      <path
         d="M -5,258.26 721.37,-5"
         id="path1463" />
    </g>
    <!-- drawing style -->
  </g>
  <g
     clip-path="url(#clip8)"
     id="g1476"
     style="stroke-width:1;stroke-linecap:square;stroke-linejoin:miter;stroke-miterlimit:10;stroke-dasharray:none;stroke-dashoffset:0">
    <g
       stroke-linejoin="round"
       stroke-width="2"
       stroke-linecap="round"
       fill="none"
       stroke-opacity="1"
       stroke="#000000"
       id="g1474">
      <path
         d="M 828.13,649 606.88,-5"
         id="path1472" />
    </g>
    <!-- drawing style -->
  </g>
  <g
     clip-path="url(#clip9)"
     id="g1485"
     style="stroke-width:1;stroke-linecap:square;stroke-linejoin:miter;stroke-miterlimit:10;stroke-dasharray:none;stroke-dashoffset:0">
    <g
       stroke-linejoin="round"
       stroke-dasharray="6.5, 4"
       stroke-width="2.5"
       stroke-linecap="butt"
       fill="none"
       stroke-opacity="1"
       stroke="#000000"
       id="g1483">
      <path
         d="M -5,368.66 922,249.55"
         id="path1481" />
    </g>
    <!-- drawing style -->
  </g>
  <g
     clip-path="url(#clip10)"
     id="g1494"
     style="stroke-width:1;stroke-linecap:square;stroke-linejoin:miter;stroke-miterlimit:10;stroke-dasharray:none;stroke-dashoffset:0">
    <g
       stroke-linejoin="round"
       stroke-dasharray="6.5, 4"
       stroke-width="2.5"
       stroke-linecap="butt"
       fill="none"
       stroke-opacity="1"
       stroke="#000000"
       id="g1492">
      <path
         d="M 183.41,649 365.62,-5"
         id="path1490" />
    </g>
    <!-- drawing style -->
  </g>
  <g
     clip-path="url(#clip11)"
     id="g1503"
     style="stroke-width:1;stroke-linecap:square;stroke-linejoin:miter;stroke-miterlimit:10;stroke-dasharray:none;stroke-dashoffset:0">
    <g
       stroke-linejoin="round"
       stroke-dasharray="10.5, 4, 2.5, 4"
       stroke-width="2.5"
       stroke-linecap="butt"
       fill="none"
       stroke-opacity="1"
       stroke="#000000"
       id="g1501">
      <path
         d="M 117.66,-5 922,549.61"
         id="path1499" />
    </g>
    <!-- drawing style -->
  </g>
  <g
     clip-path="url(#clip12)"
     id="g1512"
     style="stroke-width:1;stroke-linecap:square;stroke-linejoin:miter;stroke-miterlimit:10;stroke-dasharray:none;stroke-dashoffset:0">
    <g
       stroke-linejoin="round"
       stroke-dasharray="10.5, 4, 2.5, 4"
       stroke-width="2.5"
       stroke-linecap="butt"
       fill="none"
       stroke-opacity="1"
       stroke="#000000"
       id="g1510">
      <path
         d="M 61.028,649 922,150.74"
         id="path1508" />
    </g>
    <!-- drawing style -->
  </g>
  <g
     clip-path="url(#clip13)"
     id="g1521"
     style="stroke-width:1;stroke-linecap:square;stroke-linejoin:miter;stroke-miterlimit:10;stroke-dasharray:none;stroke-dashoffset:0">
    <g
       fill-opacity="1"
       fill-rule="nonzero"
       stroke="none"
       fill="#ff0000"
       id="g1519">
      <path
         d="m 276.41,333.15 c 0,2.76 -2.24,5 -5,5 -2.76,0 -5,-2.24 -5,-5 0,-2.77 2.24,-5 5,-5 2.76,0 5,2.23 5,5 z"
         id="path1517" />
    </g>
    <!-- drawing style -->
  </g>
  <g
     clip-path="url(#clip14)"
     id="g1530"
     style="stroke-width:1;stroke-linecap:square;stroke-linejoin:miter;stroke-miterlimit:10;stroke-dasharray:none;stroke-dashoffset:0">
    <g
       stroke-linejoin="round"
       stroke-linecap="round"
       fill="none"
       stroke-opacity="1"
       stroke="#000000"
       id="g1528">
      <path
         d="m 276.41,333.15 c 0,2.76 -2.24,5 -5,5 -2.76,0 -5,-2.24 -5,-5 0,-2.77 2.24,-5 5,-5 2.76,0 5,2.23 5,5 z"
         id="path1526" />
    </g>
    <!-- drawing style -->
  </g>
  <g
     clip-path="url(#clip15)"
     id="g1539"
     style="stroke-width:1;stroke-linecap:square;stroke-linejoin:miter;stroke-miterlimit:10;stroke-dasharray:none;stroke-dashoffset:0">
    <g
       fill-opacity="1"
       fill-rule="nonzero"
       stroke="none"
       fill="#ff0000"
       id="g1537">
      <path
         d="m 612.49,332.75 c 0,2.76 -2.24,5 -5,5 -2.76,0 -5,-2.24 -5,-5 0,-2.76 2.24,-5 5,-5 2.76,0 5,2.24 5,5 z"
         id="path1535" />
    </g>
    <!-- drawing style -->
  </g>
  <g
     clip-path="url(#clip16)"
     id="g1548"
     style="stroke-width:1;stroke-linecap:square;stroke-linejoin:miter;stroke-miterlimit:10;stroke-dasharray:none;stroke-dashoffset:0">
    <g
       stroke-linejoin="round"
       stroke-linecap="round"
       fill="none"
       stroke-opacity="1"
       stroke="#000000"
       id="g1546">
      <path
         d="m 612.49,332.75 c 0,2.76 -2.24,5 -5,5 -2.76,0 -5,-2.24 -5,-5 0,-2.76 2.24,-5 5,-5 2.76,0 5,2.24 5,5 z"
         id="path1544" />
    </g>
    <!-- drawing style -->
  </g>
  <g
     clip-path="url(#clip17)"
     id="g1557"
     style="stroke-width:1;stroke-linecap:square;stroke-linejoin:miter;stroke-miterlimit:10;stroke-dasharray:none;stroke-dashoffset:0">
    <g
       fill-opacity="1"
       fill-rule="nonzero"
       stroke="none"
       fill="#444444"
       id="g1555">
      <path
         d="m 624.55,172.25 c 0,2.76 -2.24,5 -5,5 -2.76,0 -5,-2.24 -5,-5 0,-2.76 2.24,-5 5,-5 2.76,0 5,2.24 5,5 z"
         id="path1553" />
    </g>
    <!-- drawing style -->
  </g>
  <g
     clip-path="url(#clip18)"
     id="g1566"
     style="stroke-width:1;stroke-linecap:square;stroke-linejoin:miter;stroke-miterlimit:10;stroke-dasharray:none;stroke-dashoffset:0">
    <g
       stroke-linejoin="round"
       stroke-linecap="round"
       fill="none"
       stroke-opacity="1"
       stroke="#000000"
       id="g1564">
      <path
         d="m 624.55,172.25 c 0,2.76 -2.24,5 -5,5 -2.76,0 -5,-2.24 -5,-5 0,-2.76 2.24,-5 5,-5 2.76,0 5,2.24 5,5 z"
         id="path1562" />
    </g>
    <!-- drawing style -->
  </g>
  <g
     clip-path="url(#clip19)"
     id="g1575"
     style="stroke-width:1;stroke-linecap:square;stroke-linejoin:miter;stroke-miterlimit:10;stroke-dasharray:none;stroke-dashoffset:0">
    <g
       fill-opacity="1"
       fill-rule="nonzero"
       stroke="none"
       fill="#444444"
       id="g1573">
      <path
         d="m 624.93,493.22 c 0,2.76 -2.24,5 -5,5 -2.76,0 -5,-2.24 -5,-5 0,-2.76 2.24,-5 5,-5 2.76,0 5,2.24 5,5 z"
         id="path1571" />
    </g>
    <!-- drawing style -->
  </g>
  <g
     clip-path="url(#clip20)"
     id="g1584"
     style="stroke-width:1;stroke-linecap:square;stroke-linejoin:miter;stroke-miterlimit:10;stroke-dasharray:none;stroke-dashoffset:0">
    <g
       stroke-linejoin="round"
       stroke-linecap="round"
       fill="none"
       stroke-opacity="1"
       stroke="#000000"
       id="g1582">
      <path
         d="m 624.93,493.22 c 0,2.76 -2.24,5 -5,5 -2.76,0 -5,-2.24 -5,-5 0,-2.76 2.24,-5 5,-5 2.76,0 5,2.24 5,5 z"
         id="path1580" />
    </g>
    <!-- drawing style -->
  </g>
  <g
     clip-path="url(#clip21)"
     id="g1593"
     style="stroke-width:1;stroke-linecap:square;stroke-linejoin:miter;stroke-miterlimit:10;stroke-dasharray:none;stroke-dashoffset:0">
    <g
       fill-opacity="1"
       fill-rule="nonzero"
       stroke="none"
       fill="#ff7f00"
       id="g1591">
      <path
         d="m 624.38,31.962 c 0,2.761 -2.23,5 -5,5 -2.76,0 -5,-2.239 -5,-5 0,-2.762 2.24,-5 5,-5 2.77,0 5,2.238 5,5 z"
         id="path1589" />
    </g>
    <!-- drawing style -->
  </g>
  <g
     clip-path="url(#clip22)"
     id="g1602"
     style="stroke-width:1;stroke-linecap:square;stroke-linejoin:miter;stroke-miterlimit:10;stroke-dasharray:none;stroke-dashoffset:0">
    <g
       stroke-linejoin="round"
       stroke-linecap="round"
       fill="none"
       stroke-opacity="1"
       stroke="#000000"
       id="g1600">
      <path
         d="m 624.38,31.962 c 0,2.761 -2.23,5 -5,5 -2.76,0 -5,-2.239 -5,-5 0,-2.762 2.24,-5 5,-5 2.77,0 5,2.238 5,5 z"
         id="path1598" />
    </g>
    <!-- drawing style -->
  </g>
  <g
     clip-path="url(#clip24)"
     id="g1620"
     style="stroke-width:1;stroke-linecap:square;stroke-linejoin:miter;stroke-miterlimit:10;stroke-dasharray:none;stroke-dashoffset:0">
    <g
       fill-opacity="1"
       fill-rule="nonzero"
       stroke="none"
       fill="#ff7f00"
       id="g1618" />
    <!-- drawing style -->
  </g>
  <g
     clip-path="url(#clip25)"
     id="g1629"
     style="stroke-width:1;stroke-linecap:square;stroke-linejoin:miter;stroke-miterlimit:10;stroke-dasharray:none;stroke-dashoffset:0">
    <g
       fill-opacity="1"
       fill-rule="nonzero"
       stroke="none"
       fill="#444444"
       id="g1627">
      <path
         d="m 707.53,277.75 c 0,2.76 -2.24,5 -5,5 -2.76,0 -5,-2.24 -5,-5 0,-2.76 2.24,-5 5,-5 2.76,0 5,2.24 5,5 z"
         id="path1625" />
    </g>
    <!-- drawing style -->
  </g>
  <g
     clip-path="url(#clip26)"
     id="g1638"
     style="stroke-width:1;stroke-linecap:square;stroke-linejoin:miter;stroke-miterlimit:10;stroke-dasharray:none;stroke-dashoffset:0">
    <g
       stroke-linejoin="round"
       stroke-linecap="round"
       fill="none"
       stroke-opacity="1"
       stroke="#000000"
       id="g1636">
      <path
         d="m 707.53,277.75 c 0,2.76 -2.24,5 -5,5 -2.76,0 -5,-2.24 -5,-5 0,-2.76 2.24,-5 5,-5 2.76,0 5,2.24 5,5 z"
         id="path1634" />
    </g>
    <!-- drawing style -->
  </g>
  <g
     clip-path="url(#clip27)"
     id="g1647"
     style="stroke-width:1;stroke-linecap:square;stroke-linejoin:miter;stroke-miterlimit:10;stroke-dasharray:none;stroke-dashoffset:0">
    <g
       fill-opacity="1"
       fill-rule="nonzero"
       stroke="none"
       fill="#444444"
       id="g1645">
      <path
         d="m 560.18,296.68 c 0,2.76 -2.23,5 -5,5 -2.76,0 -5,-2.24 -5,-5 0,-2.76 2.24,-5 5,-5 2.77,0 5,2.24 5,5 z"
         id="path1643" />
    </g>
    <!-- drawing style -->
  </g>
  <g
     clip-path="url(#clip28)"
     id="g1656"
     style="stroke-width:1;stroke-linecap:square;stroke-linejoin:miter;stroke-miterlimit:10;stroke-dasharray:none;stroke-dashoffset:0">
    <g
       stroke-linejoin="round"
       stroke-linecap="round"
       fill="none"
       stroke-opacity="1"
       stroke="#000000"
       id="g1654">
      <path
         d="m 560.18,296.68 c 0,2.76 -2.23,5 -5,5 -2.76,0 -5,-2.24 -5,-5 0,-2.76 2.24,-5 5,-5 2.77,0 5,2.24 5,5 z"
         id="path1652" />
    </g>
    <!-- drawing style -->
  </g>
  <g
     clip-path="url(#clip29)"
     id="g1665"
     style="stroke-width:1;stroke-linecap:square;stroke-linejoin:miter;stroke-miterlimit:10;stroke-dasharray:none;stroke-dashoffset:0">
    <g
       fill-opacity="1"
       fill-rule="nonzero"
       stroke="none"
       fill="#444444"
       id="g1663">
      <path
         d="m 330.66,138.42 c 0,2.76 -2.24,5 -5,5 -2.76,0 -5,-2.24 -5,-5 0,-2.76 2.24,-5 5,-5 2.76,0 5,2.24 5,5 z"
         id="path1661" />
    </g>
    <!-- drawing style -->
  </g>
  <g
     clip-path="url(#clip30)"
     id="g1674"
     style="stroke-width:1;stroke-linecap:square;stroke-linejoin:miter;stroke-miterlimit:10;stroke-dasharray:none;stroke-dashoffset:0">
    <g
       stroke-linejoin="round"
       stroke-linecap="round"
       fill="none"
       stroke-opacity="1"
       stroke="#000000"
       id="g1672">
      <path
         d="m 330.66,138.42 c 0,2.76 -2.24,5 -5,5 -2.76,0 -5,-2.24 -5,-5 0,-2.76 2.24,-5 5,-5 2.76,0 5,2.24 5,5 z"
         id="path1670" />
    </g>
    <!-- drawing style -->
  </g>
  <g
     clip-path="url(#clip31)"
     id="g1683"
     style="stroke-width:1;stroke-linecap:square;stroke-linejoin:miter;stroke-miterlimit:10;stroke-dasharray:none;stroke-dashoffset:0">
    <g
       fill-opacity="1"
       fill-rule="nonzero"
       stroke="none"
       fill="#444444"
       id="g1681">
      <path
         d="m 211.93,564.56 c 0,2.76 -2.23,5 -5,5 -2.76,0 -5,-2.24 -5,-5 0,-2.76 2.24,-5 5,-5 2.77,0 5,2.24 5,5 z"
         id="path1679" />
    </g>
    <!-- drawing style -->
  </g>
  <g
     clip-path="url(#clip32)"
     id="g1692"
     style="stroke-width:1;stroke-linecap:square;stroke-linejoin:miter;stroke-miterlimit:10;stroke-dasharray:none;stroke-dashoffset:0">
    <g
       stroke-linejoin="round"
       stroke-linecap="round"
       fill="none"
       stroke-opacity="1"
       stroke="#000000"
       id="g1690">
      <path
         d="m 211.93,564.56 c 0,2.76 -2.23,5 -5,5 -2.76,0 -5,-2.24 -5,-5 0,-2.76 2.24,-5 5,-5 2.77,0 5,2.24 5,5 z"
         id="path1688" />
    </g>
    <!-- drawing style -->
  </g>
  <text
     xml:space="preserve"
     style="font-style:normal;font-weight:normal;font-size:23.2995px;line-height:1.25;font-family:sans-serif;fill:#000000;fill-opacity:1;stroke:none;stroke-width:0.582487"
     x="712.32538"
     y="43.823357"
     id="text2084"
     transform="scale(0.89545956,1.116745)"><tspan
       sodipodi:role="line"
       id="tspan2082"
       style="stroke-width:0.582487"
       x="712.32538"
       y="43.823357">$M$</tspan></text>
  <text
     xml:space="preserve"
     style="font-style:normal;font-weight:normal;font-size:23.6318px;line-height:1.25;font-family:sans-serif;fill:#000000;fill-opacity:1;stroke:none;stroke-width:0.590795"
     x="302.63257"
     y="319.96216"
     id="text2088"
     transform="scale(0.87875036,1.1379796)"><tspan
       sodipodi:role="line"
       id="tspan2086"
       style="stroke-width:0.590795"
       x="302.63257"
       y="319.96216">$F_1$</tspan></text>
  <text
     xml:space="preserve"
     style="font-style:normal;font-weight:normal;font-size:20.3047px;line-height:1.25;font-family:sans-serif;fill:#000000;fill-opacity:1;stroke:none;stroke-width:0.507618"
     x="645.2998"
     y="333.8042"
     id="text2092"
     transform="scale(0.90131072,1.1094953)"><tspan
       sodipodi:role="line"
       id="tspan2090"
       style="stroke-width:0.507618"
       x="645.2998"
       y="333.8042">$F_2$</tspan></text>
  <text
     xml:space="preserve"
     style="font-style:normal;font-weight:normal;font-size:20.3664px;line-height:1.25;font-family:sans-serif;fill:#000000;fill-opacity:1;stroke:none;stroke-width:0.50916"
     x="410.21683"
     y="146.39148"
     id="text2096"
     transform="scale(0.78273333,1.2775743)"><tspan
       sodipodi:role="line"
       id="tspan2094"
       style="stroke-width:0.50916"
       x="410.21683"
       y="146.39148">$Q_1$</tspan></text>
  <text
     xml:space="preserve"
     style="font-style:normal;font-weight:normal;font-size:20.3664px;line-height:1.25;font-family:sans-serif;fill:#000000;fill-opacity:1;stroke:none;stroke-width:0.50916"
     x="919.84534"
     y="234.14375"
     id="text2100"
     transform="scale(0.78273334,1.2775743)"><tspan
       sodipodi:role="line"
       id="tspan2098"
       style="stroke-width:0.50916"
       x="919.84534"
       y="234.14375">$Q_2$</tspan></text>
  <text
     xml:space="preserve"
     style="font-style:normal;font-weight:normal;font-size:25.1607px;line-height:1.25;font-family:sans-serif;fill:#000000;fill-opacity:1;stroke:none;stroke-width:0.629016"
     x="272.12723"
     y="469.95517"
     id="text2104"
     transform="scale(0.80495913,1.2422991)"><tspan
       sodipodi:role="line"
       id="tspan2102"
       style="stroke-width:0.629016"
       x="272.12723"
       y="469.95517">$P_1$</tspan></text>
  <text
     xml:space="preserve"
     style="font-style:normal;font-weight:normal;font-size:25.1607px;line-height:1.25;font-family:sans-serif;fill:#000000;fill-opacity:1;stroke:none;stroke-width:0.629016"
     x="618.6933"
     y="264.28278"
     id="text2108"
     transform="scale(0.80495913,1.2422991)"><tspan
       sodipodi:role="line"
       id="tspan2106"
       style="stroke-width:0.629016"
       x="618.6933"
       y="264.28278">$P_2$</tspan></text>
  <text
     xml:space="preserve"
     style="font-style:normal;font-weight:normal;font-size:34.3299px;line-height:1.25;font-family:sans-serif;fill:#000000;fill-opacity:1;stroke:none;stroke-width:0.858245"
     x="622.41571"
     y="186.52733"
     id="text2112"
     transform="scale(1.0118451,0.98829357)"><tspan
       sodipodi:role="line"
       id="tspan2110"
       style="stroke-width:0.858245"
       x="622.41571"
       y="186.52733">$P$</tspan></text>
  <text
     xml:space="preserve"
     style="font-style:normal;font-weight:normal;font-size:33.3461px;line-height:1.25;font-family:sans-serif;fill:#000000;fill-opacity:1;stroke:none;stroke-width:0.833651"
     x="679.18176"
     y="473.60446"
     id="text2116"
     transform="scale(0.93028829,1.0749356)"><tspan
       sodipodi:role="line"
       id="tspan2114"
       style="stroke-width:0.833651"
       x="679.18176"
       y="473.60446">$Q$</tspan></text>
</svg>
